<?xml version="1.0"?>
<svg version="1.1" xmlns="http://www.w3.org/2000/svg" xmlns:xlink="http://www.w3.org/1999/xlink" width="1000" height="1000">
    <desc iVinci="yes" version="4.6" gridStep="20" showGrid="no" snapToGrid="no" codePlatform="0"/>
    <g id="Layer1" name="Layer 1" opacity="1">
        <g id="Shape1">
            <desc shapeID="1" type="0" basicInfo-basicType="0" basicInfo-roundedRectRadius="12" basicInfo-polygonSides="6" basicInfo-starPoints="5" bounding="rect(-500,-500,1000,1000)" text="" font-familyName="" font-pixelSize="20" font-bold="0" font-underline="0" font-alignment="1" strokeStyle="0" markerStart="0" markerEnd="0" shadowEnabled="0" shadowOffsetX="0" shadowOffsetY="2" shadowBlur="4" shadowOpacity="160" blurEnabled="0" blurRadius="4" transform="matrix(1,0,0,1,495.833,495.833)" pers-center="0,0" pers-size="0,0" pers-start="0,0" pers-end="0,0" locked="0" mesh="" flag=""/>
            <path id="shapePath1" d="M995.833,495.833 C995.833,771.976 771.976,995.833 495.833,995.833 C219.691,995.833 -4.16666,771.976 -4.16666,495.833 C-4.16666,219.691 219.691,-4.16666 495.833,-4.16666 C771.976,-4.16666 995.833,219.691 995.833,495.833 Z" style="stroke:#000000;stroke-opacity:1;stroke-width:0;stroke-linejoin:bevel;stroke-miterlimit:2;stroke-linecap:square;fill-rule:evenodd;fill:#2b73b1;fill-opacity:1;"/>
        </g>
        <g id="Shape2">
            <desc shapeID="2" type="0" basicInfo-basicType="0" basicInfo-roundedRectRadius="12" basicInfo-polygonSides="6" basicInfo-starPoints="5" bounding="rect(-279.375,-238.125,558.75,476.25)" text="" font-familyName="" font-pixelSize="20" font-bold="0" font-underline="0" font-alignment="1" strokeStyle="0" markerStart="0" markerEnd="0" shadowEnabled="0" shadowOffsetX="0" shadowOffsetY="2" shadowBlur="4" shadowOpacity="160" blurEnabled="0" blurRadius="4" transform="matrix(1,0,0,1,506.875,565)" pers-center="0,0" pers-size="0,0" pers-start="0,0" pers-end="0,0" locked="0" mesh="" flag=""/>
            <path id="shapePath2" d="M252.5,326.875 C421.25,332.5 590,330.625 759.375,326.875 C766.25,370.625 779.375,458.75 786.25,502.5 C695.625,605 601.875,705.625 505.625,803.125 C410,705.625 317.5,605.625 227.5,503.125 C233.75,458.75 246.25,370.625 252.5,326.875 Z" style="stroke:#000000;stroke-opacity:0.501961;stroke-width:0;stroke-linejoin:bevel;stroke-miterlimit:2;stroke-linecap:square;fill-rule:nonzero;fill:#ffffff;fill-opacity:1;"/>
        </g>
    </g>
</svg>
