<?xml version="1.0" encoding="UTF-8" ?>
<!DOCTYPE svg PUBLIC "-//W3C//DTD SVG 1.1//EN" "http://www.w3.org/Graphics/SVG/1.1/DTD/svg11.dtd">
<svg width="85pt" height="85pt" viewBox="0 0 85 85" version="1.1" xmlns="http://www.w3.org/2000/svg">
<path fill="#25364b" opacity="0.63" d=" M 22.94 2.68 C 25.72 2.56 28.50 2.55 31.28 2.64 C 31.42 6.20 31.42 9.77 31.69 13.34 C 32.89 9.93 33.45 6.33 33.15 2.72 C 41.90 2.45 50.66 2.41 59.41 2.75 C 58.54 12.22 56.28 21.78 58.40 31.25 C 46.92 31.60 35.41 31.52 23.93 31.30 C 22.07 25.67 22.44 19.71 21.74 13.90 C 21.28 10.11 22.37 6.40 22.94 2.68 M 46.65 19.00 C 46.89 21.18 47.67 23.25 48.38 25.32 C 48.67 21.11 48.67 16.89 48.38 12.68 C 47.67 14.74 46.89 16.82 46.65 19.00 Z" />
<path fill="#000000" opacity="0.35" d=" M 15.14 34.12 C 33.37 33.91 51.63 33.90 69.86 34.12 C 70.18 39.70 70.18 45.30 69.86 50.88 C 51.63 51.09 33.37 51.10 15.14 50.88 C 14.83 45.29 14.83 39.70 15.14 34.12 Z" />
<path fill="#25364b" opacity="0.63" d=" M 27.70 53.72 C 33.56 53.43 39.43 53.44 45.29 53.71 C 45.43 57.59 45.42 61.47 45.66 65.34 C 47.19 61.65 47.39 57.66 46.70 53.76 C 51.85 53.41 57.02 53.44 62.17 53.73 C 62.88 63.21 64.83 72.91 62.06 82.27 C 49.94 82.57 37.80 82.56 25.68 82.27 C 26.29 78.08 26.76 73.87 27.35 69.68 C 27.80 64.37 27.38 59.03 27.70 53.72 M 36.65 70.00 C 36.89 72.18 37.67 74.26 38.38 76.32 C 38.67 72.11 38.67 67.89 38.38 63.69 C 37.67 65.75 36.89 67.82 36.65 70.00 Z" />
</svg>
