<?xml version="1.0" encoding="UTF-8" ?>
<!DOCTYPE svg PUBLIC "-//W3C//DTD SVG 1.1//EN" "http://www.w3.org/Graphics/SVG/1.1/DTD/svg11.dtd">
<svg width="85pt" height="85pt" viewBox="0 0 85 85" version="1.1" xmlns="http://www.w3.org/2000/svg">
<path fill="#25364b" opacity="0.63" d=" M 22.92 2.64 C 25.70 2.55 28.49 2.55 31.27 2.62 C 31.43 6.22 31.46 9.84 31.78 13.43 C 32.73 9.93 33.24 6.32 33.32 2.69 C 42.03 2.45 50.74 2.41 59.45 2.73 C 58.53 12.21 56.29 21.78 58.41 31.27 C 46.91 31.61 35.39 31.51 23.89 31.33 C 22.16 25.67 22.36 19.71 21.69 13.89 C 21.27 10.08 22.33 6.36 22.92 2.64 M 48.32 25.41 C 48.66 21.15 48.66 16.86 48.32 12.59 C 46.46 16.73 46.46 21.27 48.32 25.41 Z" />
<path fill="#000000" opacity="0.35" d=" M 15.18 34.16 C 24.14 33.79 33.13 33.90 42.09 34.15 C 40.44 37.26 38.79 40.37 37.09 43.45 C 39.08 43.78 41.07 44.10 43.06 44.43 C 41.50 46.87 40.46 50.83 36.99 50.91 C 29.73 51.27 22.44 51.11 15.18 50.84 C 14.76 45.29 14.76 39.71 15.18 34.16 Z" />
<path fill="#000000" opacity="0.35" d=" M 42.03 40.57 C 43.73 37.91 45.08 33.68 48.96 34.03 C 55.91 33.79 62.87 33.86 69.82 34.17 C 70.24 39.72 70.24 45.29 69.81 50.84 C 60.90 51.23 51.97 51.03 43.05 50.93 C 44.73 47.82 46.38 44.70 48.00 41.56 C 46.01 41.22 44.02 40.90 42.03 40.57 Z" />
<path fill="#25364b" opacity="0.63" d=" M 27.69 53.70 C 33.55 53.43 39.43 53.42 45.29 53.70 C 45.44 57.61 45.44 61.53 45.75 65.43 C 47.07 61.67 47.06 57.66 46.75 53.74 C 51.88 53.41 57.03 53.42 62.17 53.71 C 62.94 63.21 64.82 72.93 62.08 82.31 C 49.94 82.55 37.79 82.56 25.65 82.30 C 26.28 77.80 26.87 73.31 27.42 68.81 C 27.71 63.78 27.41 58.73 27.69 53.70 M 38.32 76.40 C 38.66 72.14 38.66 67.85 38.32 63.59 C 36.46 67.72 36.46 72.27 38.32 76.40 Z" />
</svg>
