<?xml version="1.0"?>
<svg version="1.1" xmlns="http://www.w3.org/2000/svg" xmlns:xlink="http://www.w3.org/1999/xlink" width="85" height="85">
    <desc iVinci="yes" version="4.6" gridStep="20" showGrid="no" snapToGrid="no" codePlatform="0"/>
    <g id="Layer1" name="Layer 1" opacity="1">
        <g id="Shape1">
            <desc shapeID="1" type="0" basicInfo-basicType="2" basicInfo-roundedRectRadius="5" basicInfo-polygonSides="6" basicInfo-starPoints="5" bounding="rect(-11.968,-26.1189,23.936,52.2378)" text="" font-familyName="Helvetica" font-pixelSize="20" font-bold="0" font-underline="0" font-alignment="1" strokeStyle="0" markerStart="0" markerEnd="0" shadowEnabled="0" shadowOffsetX="0" shadowOffsetY="2" shadowBlur="4" shadowOpacity="160" blurEnabled="0" blurRadius="4" transform="matrix(1.03145,0,0,1,42.3773,42.6031)" pers-center="0,0" pers-size="0,0" pers-start="0,0" pers-end="0,0" locked="0" mesh="" flag=""/>
            <path id="shapePath1" d="M30.033,21.4843 C30.033,18.7228 32.3419,16.4843 35.1902,16.4843 L49.5645,16.4843 C52.4127,16.4843 54.7217,18.7228 54.7217,21.4843 L54.7217,63.722 C54.7217,66.4835 52.4127,68.722 49.5645,68.722 L35.1902,68.722 C32.3419,68.722 30.033,66.4835 30.033,63.722 L30.033,21.4843 Z" style="stroke:none;fill-rule:evenodd;fill:#000000;fill-opacity:0.34902;"/>
        </g>
        <g id="Shape2">
            <desc shapeID="2" type="0" basicInfo-basicType="2" basicInfo-roundedRectRadius="5" basicInfo-polygonSides="6" basicInfo-starPoints="5" bounding="rect(-22.3554,-12.1938,44.7107,24.3877)" text="" font-familyName="Helvetica" font-pixelSize="20" font-bold="0" font-underline="0" font-alignment="1" strokeStyle="0" markerStart="0" markerEnd="0" shadowEnabled="0" shadowOffsetX="0" shadowOffsetY="2" shadowBlur="4" shadowOpacity="160" blurEnabled="0" blurRadius="4" transform="matrix(1,0,0,1,42.5,38.6138)" pers-center="0,0" pers-size="0,0" pers-start="0,0" pers-end="0,0" locked="0" mesh="" flag=""/>
            <path id="shapePath2" d="M20.1446,31.42 C20.1446,28.6585 22.3832,26.42 25.1446,26.42 L59.8554,26.42 C62.6168,26.42 64.8554,28.6585 64.8554,31.42 L64.8554,45.8076 C64.8554,48.5691 62.6168,50.8076 59.8554,50.8076 L25.1446,50.8076 C22.3832,50.8076 20.1446,48.5691 20.1446,45.8076 L20.1446,31.42 Z" style="stroke:none;fill-rule:evenodd;fill:#000000;fill-opacity:0.34902;"/>
        </g>
    </g>
</svg>
