<?xml version="1.0" encoding="UTF-8" ?>
<!DOCTYPE svg PUBLIC "-//W3C//DTD SVG 1.1//EN" "http://www.w3.org/Graphics/SVG/1.1/DTD/svg11.dtd">
<svg width="85pt" height="85pt" viewBox="0 0 85 85" version="1.1" xmlns="http://www.w3.org/2000/svg">
<g id="#00000059">
<path fill="#000000" opacity="0.35" d=" M 16.04 22.92 C 15.74 19.85 17.77 16.51 21.01 16.20 C 26.02 15.80 31.07 15.90 36.09 16.10 C 39.19 16.00 41.99 18.77 41.88 21.89 C 42.20 28.92 41.89 35.96 42.00 43.00 C 49.03 43.12 56.07 42.79 63.09 43.10 C 65.84 43.03 68.53 45.21 68.79 47.99 C 69.20 51.98 68.99 56.00 69.03 60.00 C 68.88 62.45 69.25 65.42 67.17 67.22 C 65.35 69.27 62.39 68.90 59.93 69.04 C 48.28 68.97 36.63 68.99 24.98 69.04 C 22.54 68.91 19.60 69.24 17.80 67.20 C 15.75 65.39 16.12 62.42 15.97 59.97 C 16.06 47.62 15.92 35.27 16.04 22.92 Z" />
</g>
</svg>
