<?xml version="1.0" encoding="UTF-8" ?>
<!DOCTYPE svg PUBLIC "-//W3C//DTD SVG 1.1//EN" "http://www.w3.org/Graphics/SVG/1.1/DTD/svg11.dtd">
<svg width="85pt" height="85pt" viewBox="0 0 85 85" version="1.1" xmlns="http://www.w3.org/2000/svg">
<g id="#00000059">
<path fill="#000000" opacity="0.35" d=" M 17.82 17.78 C 19.62 15.76 22.55 16.11 24.99 15.96 C 36.66 16.02 48.33 16.02 60.00 15.96 C 62.47 16.10 65.43 15.76 67.23 17.84 C 69.23 19.63 68.88 22.55 69.03 24.96 C 68.93 37.33 69.09 49.69 68.96 62.05 C 69.17 64.88 67.63 67.95 64.73 68.66 C 61.50 69.26 58.16 69.21 54.92 68.78 C 52.17 68.47 50.04 65.82 50.11 63.09 C 49.80 53.74 50.12 44.36 49.99 35.00 C 45.00 34.99 40.00 34.99 35.01 35.00 C 34.93 44.04 35.11 53.09 34.96 62.13 C 35.16 64.89 33.65 67.87 30.85 68.64 C 27.35 69.26 23.72 69.27 20.22 68.65 C 17.36 67.92 15.83 64.88 16.04 62.07 C 15.91 49.71 16.07 37.34 15.97 24.98 C 16.12 22.53 15.77 19.58 17.82 17.78 Z" />
</g>
</svg>
