<?xml version="1.0" encoding="UTF-8" ?>
<!DOCTYPE svg PUBLIC "-//W3C//DTD SVG 1.1//EN" "http://www.w3.org/Graphics/SVG/1.1/DTD/svg11.dtd">
<svg width="85pt" height="85pt" viewBox="0 0 85 85" version="1.1" xmlns="http://www.w3.org/2000/svg">
<path fill="#000000" opacity="0.35" d=" M 40.48 14.13 C 42.64 17.36 42.08 21.32 42.09 24.98 C 41.54 24.98 40.46 24.98 39.91 24.98 C 39.92 21.35 39.99 17.72 40.48 14.13 Z" />
<path fill="#000000" opacity="0.35" d=" M 43.97 18.03 C 44.49 18.03 45.51 18.02 46.03 18.02 C 46.02 20.34 46.02 22.66 46.03 24.98 C 45.51 24.98 44.49 24.98 43.97 24.98 C 43.98 22.66 43.98 20.35 43.97 18.03 Z" />
<path fill="#000000" opacity="0.35" d=" M 19.35 24.77 C 20.81 22.26 22.33 18.50 25.92 19.06 C 29.11 19.08 30.21 22.54 31.65 24.77 C 27.55 25.03 23.45 25.03 19.35 24.77 Z" />
<path fill="#000000" opacity="0.35" d=" M 35.99 20.03 C 36.50 20.03 37.51 20.03 38.02 20.03 C 38.01 21.68 38.01 23.33 38.01 24.98 C 37.50 24.98 36.49 24.97 35.98 24.97 C 35.98 23.32 35.99 21.67 35.99 20.03 Z" />
<path fill="#000000" opacity="0.35" d=" M 64.48 26.13 C 66.65 29.36 66.07 33.32 66.09 36.98 C 65.54 36.98 64.46 36.97 63.91 36.97 C 63.92 33.35 63.99 29.73 64.48 26.13 Z" />
<path fill="#000000" opacity="0.35" d=" M 67.97 30.03 C 68.49 30.03 69.51 30.02 70.03 30.02 C 70.02 32.33 70.02 34.65 70.03 36.96 C 69.51 36.97 68.49 36.98 67.97 36.99 C 67.98 34.67 67.98 32.35 67.97 30.03 Z" />
<path fill="#000000" opacity="0.35" d=" M 59.99 32.04 C 60.49 32.03 61.51 32.02 62.02 32.02 C 62.01 33.67 62.01 35.32 62.01 36.97 C 61.50 36.97 60.49 36.98 59.98 36.98 C 59.98 35.33 59.99 33.68 59.99 32.04 Z" />
<path fill="#000000" opacity="0.35" d=" M 19.48 49.13 C 21.65 52.36 21.07 56.32 21.09 59.99 C 20.54 59.98 19.45 59.98 18.91 59.97 C 18.92 56.35 18.99 52.73 19.48 49.13 Z" />
<path fill="#000000" opacity="0.35" d=" M 22.97 53.02 C 23.48 53.02 24.51 53.03 25.02 53.03 C 25.02 55.34 25.02 57.65 25.03 59.97 C 24.52 59.97 23.49 59.98 22.98 59.98 C 22.98 57.66 22.98 55.34 22.97 53.02 Z" />
<path fill="#000000" opacity="0.35" d=" M 14.99 55.02 C 15.49 55.02 16.51 55.03 17.02 55.04 C 17.01 56.68 17.01 58.33 17.02 59.98 C 16.51 59.98 15.49 59.98 14.99 59.98 C 14.99 58.32 14.99 56.67 14.99 55.02 Z" />
<path fill="#000000" opacity="0.35" d=" M 44.43 69.68 C 45.97 67.08 47.39 63.05 51.06 63.22 C 55.02 63.94 58.79 65.57 62.87 65.70 C 65.36 65.52 66.38 68.00 67.68 69.64 C 59.95 70.27 52.16 70.20 44.43 69.68 Z" />
</svg>
