<?xml version="1.0" encoding="UTF-8" ?>
<!DOCTYPE svg PUBLIC "-//W3C//DTD SVG 1.1//EN" "http://www.w3.org/Graphics/SVG/1.1/DTD/svg11.dtd">
<svg width="85pt" height="85pt" viewBox="0 0 85 85" version="1.1" xmlns="http://www.w3.org/2000/svg">
<path fill="#d7d7d7" opacity="1.00" d=" M 0.00 0.00 L 13.99 0.00 C 14.07 4.62 14.05 9.24 13.88 13.86 C 9.25 14.07 4.63 14.09 0.00 13.99 L 0.00 0.00 Z" />
<path fill="#e6e6e6" opacity="1.00" d=" M 13.99 0.00 L 17.01 0.00 C 16.95 4.64 16.96 9.28 17.07 13.92 C 22.03 14.10 27.00 14.10 31.96 13.91 C 31.99 9.27 32.02 4.64 32.16 0.00 L 35.01 0.00 C 34.95 4.64 34.95 9.28 35.06 13.92 C 40.02 14.09 44.98 14.09 49.93 13.93 C 50.06 9.29 50.06 4.64 49.95 0.00 L 53.02 0.00 C 52.91 4.61 52.92 9.23 53.12 13.84 C 58.03 14.14 62.95 14.15 67.86 13.87 C 68.06 9.25 68.08 4.62 67.98 0.00 L 71.00 0.00 C 70.90 4.63 70.92 9.26 71.14 13.88 C 75.76 14.06 80.38 14.08 85.00 13.99 L 85.00 17.01 C 80.36 16.96 75.73 16.96 71.09 17.05 C 70.91 22.01 70.91 26.97 71.07 31.93 C 75.71 32.02 80.36 32.04 85.00 32.07 L 85.00 35.02 C 80.38 34.92 75.75 34.94 71.13 35.11 C 70.86 40.02 70.86 44.94 71.13 49.86 C 75.75 50.05 80.38 50.08 85.00 50.00 L 85.00 53.03 C 80.39 52.93 75.77 52.95 71.17 53.17 C 70.84 58.05 70.84 62.95 71.16 67.83 C 75.77 68.10 80.39 68.11 85.00 67.91 L 85.00 71.02 C 80.38 70.93 75.75 70.95 71.13 71.13 C 70.90 75.75 70.92 80.38 71.16 85.00 L 67.99 85.00 C 68.05 80.36 68.04 75.72 67.92 71.08 C 62.97 70.91 58.00 70.91 53.05 71.08 C 52.97 75.72 52.96 80.36 52.95 85.00 L 49.99 85.00 C 50.10 80.39 50.09 75.77 49.89 71.16 C 44.97 70.84 40.05 70.84 35.14 71.14 C 34.95 75.76 34.92 80.38 35.01 85.00 L 31.98 85.00 C 32.09 80.38 32.08 75.76 31.88 71.14 C 26.97 70.84 22.05 70.85 17.15 71.15 C 16.94 75.76 16.91 80.38 16.99 85.00 L 13.99 85.00 C 14.04 80.36 14.04 75.72 13.96 71.09 C 9.31 70.95 4.65 70.94 0.00 71.03 L 0.00 67.99 C 4.64 68.05 9.29 68.05 13.93 67.93 C 14.09 62.98 14.08 58.02 13.93 53.07 C 9.28 52.96 4.64 52.95 0.00 52.99 L 0.00 49.99 C 4.64 50.06 9.29 50.05 13.93 49.92 C 14.09 44.97 14.09 40.02 13.90 35.07 C 9.27 34.90 4.63 34.93 0.00 35.16 L 0.00 31.98 C 4.62 32.07 9.23 32.05 13.85 31.87 C 14.12 26.96 14.13 22.05 13.88 17.14 C 9.26 16.93 4.63 16.92 0.00 17.05 L 0.00 13.99 C 4.63 14.09 9.25 14.07 13.88 13.86 C 14.05 9.24 14.07 4.62 13.99 0.00 M 17.06 17.05 C 16.94 22.01 16.95 26.97 17.04 31.93 C 22.01 32.07 26.98 32.06 31.96 31.93 C 32.06 26.97 32.07 22.00 31.93 17.04 C 26.97 16.95 22.01 16.94 17.06 17.05 M 35.09 17.10 C 34.92 22.03 34.91 26.96 35.12 31.89 C 40.03 32.13 44.96 32.09 49.87 31.88 C 50.12 26.95 50.12 22.02 49.86 17.09 C 44.94 16.88 40.01 16.86 35.09 17.10 M 53.09 17.10 C 52.86 22.01 52.87 26.92 53.18 31.82 C 58.05 32.13 62.94 32.13 67.82 31.85 C 68.13 26.96 68.14 22.05 67.91 17.15 C 62.97 16.89 58.03 16.91 53.09 17.10 M 17.10 35.09 C 16.89 40.01 16.85 44.94 17.10 49.85 C 22.03 50.13 26.96 50.13 31.89 49.88 C 32.08 44.95 32.11 40.02 31.87 35.09 C 26.95 34.89 22.02 34.89 17.10 35.09 M 35.10 35.10 C 34.90 40.02 34.91 44.94 35.10 49.86 C 40.03 50.10 44.96 50.12 49.89 49.86 C 50.10 44.96 50.11 40.05 49.84 35.15 C 44.93 34.90 40.01 34.88 35.10 35.10 M 53.07 35.05 C 52.94 40.02 52.94 44.99 53.06 49.96 C 58.02 50.06 62.98 50.05 67.94 49.96 C 68.06 44.99 68.06 40.02 67.96 35.04 C 62.99 34.93 58.03 34.94 53.07 35.05 M 17.11 53.10 C 16.86 58.02 16.89 62.96 17.11 67.88 C 22.04 68.12 26.97 68.12 31.90 67.89 C 32.11 62.97 32.10 58.04 31.89 53.12 C 26.97 52.90 22.04 52.89 17.11 53.10 M 35.05 53.05 C 34.94 58.01 34.94 62.98 35.06 67.94 C 40.02 68.05 44.99 68.06 49.95 67.95 C 50.06 62.98 50.06 58.01 49.95 53.04 C 44.98 52.94 40.01 52.94 35.05 53.05 M 53.08 53.14 C 52.87 58.05 52.88 62.96 53.14 67.87 C 58.06 68.13 62.99 68.13 67.91 67.86 C 68.12 62.94 68.09 58.01 67.90 53.09 C 62.96 52.87 58.02 52.89 53.08 53.14 Z" />
<path fill="#cdcdcd" opacity="1.00" d=" M 17.01 0.00 L 32.16 0.00 C 32.02 4.64 31.99 9.27 31.96 13.91 C 27.00 14.10 22.03 14.10 17.07 13.92 C 16.96 9.28 16.95 4.64 17.01 0.00 Z" />
<path fill="#cdcdcd" opacity="1.00" d=" M 35.01 0.00 L 49.95 0.00 C 50.06 4.64 50.06 9.29 49.93 13.93 C 44.98 14.09 40.02 14.09 35.06 13.92 C 34.95 9.28 34.95 4.64 35.01 0.00 Z" />
<path fill="#d7d7d7" opacity="1.00" d=" M 53.02 0.00 L 67.98 0.00 C 68.08 4.62 68.06 9.25 67.86 13.87 C 62.95 14.15 58.03 14.14 53.12 13.84 C 52.92 9.23 52.91 4.61 53.02 0.00 Z" />
<path fill="#d7d7d7" opacity="1.00" d=" M 71.00 0.00 L 85.00 0.00 L 85.00 13.99 C 80.38 14.08 75.76 14.06 71.14 13.88 C 70.92 9.26 70.90 4.63 71.00 0.00 Z" />
<path fill="#d7d7d7" opacity="1.00" d=" M 0.00 17.05 C 4.63 16.92 9.26 16.93 13.88 17.14 C 14.13 22.05 14.12 26.96 13.85 31.87 C 9.23 32.05 4.62 32.07 0.00 31.98 L 0.00 17.05 Z" />
<path fill="#cdcdcd" opacity="1.00" d=" M 17.06 17.05 C 22.01 16.94 26.97 16.95 31.93 17.04 C 32.07 22.00 32.06 26.97 31.96 31.93 C 26.98 32.06 22.01 32.07 17.04 31.93 C 16.95 26.97 16.94 22.01 17.06 17.05 Z" />
<path fill="#d7d7d7" opacity="1.00" d=" M 35.09 17.10 C 40.01 16.86 44.94 16.88 49.86 17.09 C 50.12 22.02 50.12 26.95 49.87 31.88 C 44.96 32.09 40.03 32.13 35.12 31.89 C 34.91 26.96 34.92 22.03 35.09 17.10 Z" />
<path fill="#dadada" opacity="1.00" d=" M 53.09 17.10 C 58.03 16.91 62.97 16.89 67.91 17.15 C 68.14 22.05 68.13 26.96 67.82 31.85 C 62.94 32.13 58.05 32.13 53.18 31.82 C 52.87 26.92 52.86 22.01 53.09 17.10 Z" />
<path fill="#cdcdcd" opacity="1.00" d=" M 71.09 17.05 C 75.73 16.96 80.36 16.96 85.00 17.01 L 85.00 32.07 C 80.36 32.04 75.71 32.02 71.07 31.93 C 70.91 26.97 70.91 22.01 71.09 17.05 Z" />
<path fill="#cdcdcd" opacity="1.00" d=" M 0.00 35.16 C 4.63 34.93 9.27 34.90 13.90 35.07 C 14.09 40.02 14.09 44.97 13.93 49.92 C 9.29 50.05 4.64 50.06 0.00 49.99 L 0.00 35.16 Z" />
<path fill="#d7d7d7" opacity="1.00" d=" M 17.10 35.09 C 22.02 34.89 26.95 34.89 31.87 35.09 C 32.11 40.02 32.08 44.95 31.89 49.88 C 26.96 50.13 22.03 50.13 17.10 49.85 C 16.85 44.94 16.89 40.01 17.10 35.09 Z" />
<path fill="#d7d7d7" opacity="1.00" d=" M 35.10 35.10 C 40.01 34.88 44.93 34.90 49.84 35.15 C 50.11 40.05 50.10 44.96 49.89 49.86 C 44.96 50.12 40.03 50.10 35.10 49.86 C 34.91 44.94 34.90 40.02 35.10 35.10 Z" />
<path fill="#cdcdcd" opacity="1.00" d=" M 53.07 35.05 C 58.03 34.94 62.99 34.93 67.96 35.04 C 68.06 40.02 68.06 44.99 67.94 49.96 C 62.98 50.05 58.02 50.06 53.06 49.96 C 52.94 44.99 52.94 40.02 53.07 35.05 Z" />
<path fill="#d7d7d7" opacity="1.00" d=" M 71.13 35.11 C 75.75 34.94 80.38 34.92 85.00 35.02 L 85.00 50.00 C 80.38 50.08 75.75 50.05 71.13 49.86 C 70.86 44.94 70.86 40.02 71.13 35.11 Z" />
<path fill="#cdcdcd" opacity="1.00" d=" M 0.00 52.99 C 4.64 52.95 9.28 52.96 13.93 53.07 C 14.08 58.02 14.09 62.98 13.93 67.93 C 9.29 68.05 4.64 68.05 0.00 67.99 L 0.00 52.99 Z" />
<path fill="#d7d7d7" opacity="1.00" d=" M 17.11 53.10 C 22.04 52.89 26.97 52.90 31.89 53.12 C 32.10 58.04 32.11 62.97 31.90 67.89 C 26.97 68.12 22.04 68.12 17.11 67.88 C 16.89 62.96 16.86 58.02 17.11 53.10 Z" />
<path fill="#cdcdcd" opacity="1.00" d=" M 35.05 53.05 C 40.01 52.94 44.98 52.94 49.95 53.04 C 50.06 58.01 50.06 62.98 49.95 67.95 C 44.99 68.06 40.02 68.05 35.06 67.94 C 34.94 62.98 34.94 58.01 35.05 53.05 Z" />
<path fill="#d7d7d7" opacity="1.00" d=" M 53.08 53.14 C 58.02 52.89 62.96 52.87 67.90 53.09 C 68.09 58.01 68.12 62.94 67.91 67.86 C 62.99 68.13 58.06 68.13 53.14 67.87 C 52.88 62.96 52.87 58.05 53.08 53.14 Z" />
<path fill="#dadada" opacity="1.00" d=" M 71.17 53.17 C 75.77 52.95 80.39 52.93 85.00 53.03 L 85.00 67.91 C 80.39 68.11 75.77 68.10 71.16 67.83 C 70.84 62.95 70.84 58.05 71.17 53.17 Z" />
<path fill="#cdcdcd" opacity="1.00" d=" M 0.00 71.03 C 4.65 70.94 9.31 70.95 13.96 71.09 C 14.04 75.72 14.04 80.36 13.99 85.00 L 0.00 85.00 L 0.00 71.03 Z" />
<path fill="#d7d7d7" opacity="1.00" d=" M 17.15 71.15 C 22.05 70.85 26.97 70.84 31.88 71.14 C 32.08 75.76 32.09 80.38 31.98 85.00 L 16.99 85.00 C 16.91 80.38 16.94 75.76 17.15 71.15 Z" />
<path fill="#d7d7d7" opacity="1.00" d=" M 35.14 71.14 C 40.05 70.84 44.97 70.84 49.89 71.16 C 50.09 75.77 50.10 80.39 49.99 85.00 L 35.01 85.00 C 34.92 80.38 34.95 75.76 35.14 71.14 Z" />
<path fill="#cdcdcd" opacity="1.00" d=" M 53.05 71.08 C 58.00 70.91 62.97 70.91 67.92 71.08 C 68.04 75.72 68.05 80.36 67.99 85.00 L 52.95 85.00 C 52.96 80.36 52.97 75.72 53.05 71.08 Z" />
<path fill="#d7d7d7" opacity="1.00" d=" M 71.13 71.13 C 75.75 70.95 80.38 70.93 85.00 71.02 L 85.00 85.00 L 71.16 85.00 C 70.92 80.38 70.90 75.75 71.13 71.13 Z" />
</svg>
