<?xml version="1.0" encoding="UTF-8" ?>
<!DOCTYPE svg PUBLIC "-//W3C//DTD SVG 1.1//EN" "http://www.w3.org/Graphics/SVG/1.1/DTD/svg11.dtd">
<svg width="85pt" height="85pt" viewBox="0 0 85 85" version="1.1" xmlns="http://www.w3.org/2000/svg">
<path fill="#d7d7d7" opacity="1.00" d=" M 0.00 0.00 L 13.91 0.00 C 14.08 4.63 14.08 9.27 13.92 13.90 C 9.28 14.05 4.64 14.08 0.00 13.99 L 0.00 0.00 Z" />
<path fill="#e6e6e6" opacity="1.00" d=" M 13.91 0.00 L 17.01 0.00 C 16.95 4.64 16.96 9.28 17.05 13.91 C 22.01 14.09 26.98 14.09 31.94 13.92 C 31.98 9.28 32.04 4.64 32.13 0.00 L 35.00 0.00 C 34.91 4.62 34.95 9.25 35.11 13.87 C 40.02 14.14 44.94 14.13 49.85 13.88 C 50.06 9.25 50.08 4.62 49.92 0.00 L 53.00 0.00 C 52.92 4.63 52.96 9.25 53.13 13.88 C 58.05 14.14 62.98 14.14 67.90 13.87 C 68.06 9.25 68.08 4.62 67.97 0.00 L 71.01 0.00 C 70.95 4.64 70.97 9.29 71.05 13.93 C 75.70 14.05 80.35 14.06 85.00 13.93 L 85.00 17.01 C 80.38 16.90 75.76 16.96 71.15 17.17 C 70.86 22.07 70.86 26.98 71.17 31.88 C 75.78 32.03 80.39 32.08 85.00 32.02 L 85.00 35.01 C 80.37 34.92 75.75 34.96 71.12 35.11 C 70.86 40.03 70.87 44.96 71.15 49.88 C 75.77 50.00 80.38 50.08 85.00 50.12 L 85.00 53.01 C 80.36 52.95 75.73 52.97 71.09 53.05 C 70.91 58.01 70.91 62.98 71.08 67.94 C 75.72 67.98 80.36 68.04 85.00 68.15 L 85.00 71.01 C 80.36 70.95 75.71 70.97 71.07 71.06 C 71.02 75.71 70.95 80.35 70.87 85.00 L 67.99 85.00 C 68.09 80.38 68.05 75.76 67.87 71.14 C 62.96 70.87 58.04 70.87 53.13 71.13 C 52.90 75.75 52.90 80.38 53.15 85.00 L 49.99 85.00 C 50.05 80.36 50.03 75.72 49.94 71.07 C 44.98 70.91 40.02 70.91 35.07 71.07 C 34.97 75.71 34.95 80.36 35.01 85.00 L 31.99 85.00 C 32.06 80.38 32.03 75.76 31.89 71.14 C 26.97 70.86 22.04 70.86 17.12 71.13 C 16.98 75.75 16.91 80.37 16.91 85.00 L 13.99 85.00 C 14.10 80.37 14.06 75.75 13.90 71.12 C 9.27 70.96 4.63 70.91 0.00 70.99 L 0.00 67.99 C 4.62 68.09 9.24 68.06 13.86 67.91 C 14.14 62.98 14.14 58.04 13.86 53.12 C 9.24 52.97 4.62 52.91 0.00 52.94 L 0.00 49.98 C 4.63 50.07 9.25 50.04 13.88 49.91 C 14.15 44.99 14.13 40.06 13.83 35.15 C 9.23 34.92 4.61 34.88 0.00 35.04 L 0.00 31.99 C 4.61 32.09 9.23 32.04 13.84 31.85 C 14.16 26.95 14.15 22.02 13.83 17.11 C 9.22 16.94 4.61 16.90 0.00 17.04 L 0.00 13.99 C 4.64 14.08 9.28 14.05 13.92 13.90 C 14.08 9.27 14.08 4.63 13.91 0.00 M 17.06 17.13 C 16.91 22.04 16.91 26.95 17.09 31.85 C 22.02 32.12 26.95 32.13 31.88 31.87 C 32.10 26.95 32.11 22.03 31.92 17.11 C 26.97 16.86 22.01 16.87 17.06 17.13 M 35.08 17.02 C 34.94 21.99 34.94 26.97 35.04 31.95 C 40.02 32.06 44.99 32.06 49.96 31.94 C 50.05 26.98 50.05 22.01 49.95 17.05 C 44.99 16.95 40.04 16.95 35.08 17.02 M 53.13 17.13 C 52.85 22.04 52.88 26.96 53.17 31.87 C 58.07 32.13 62.97 32.12 67.87 31.87 C 68.12 26.96 68.13 22.04 67.87 17.13 C 62.96 16.88 58.04 16.87 53.13 17.13 M 17.06 35.04 C 16.94 40.01 16.94 44.98 17.05 49.94 C 22.02 50.05 26.99 50.05 31.95 49.95 C 32.06 44.99 32.06 40.02 31.96 35.06 C 26.99 34.94 22.03 34.94 17.06 35.04 M 35.10 35.15 C 34.90 40.06 34.90 44.97 35.12 49.88 C 40.05 50.12 44.98 50.12 49.91 49.89 C 50.10 44.96 50.09 40.02 49.87 35.09 C 44.95 34.88 40.02 34.90 35.10 35.15 M 53.12 35.07 C 52.86 40.01 52.85 44.97 53.14 49.91 C 58.06 50.11 62.99 50.10 67.90 49.87 C 68.07 44.95 68.08 40.03 67.90 35.12 C 62.98 34.90 58.05 34.88 53.12 35.07 M 17.13 53.15 C 16.84 58.05 16.87 62.97 17.15 67.87 C 22.07 68.10 26.99 68.10 31.91 67.87 C 32.14 62.96 32.12 58.05 31.87 53.15 C 26.96 52.85 22.04 52.86 17.13 53.15 M 35.11 53.11 C 34.89 58.04 34.90 62.98 35.13 67.91 C 40.05 68.10 44.97 68.11 49.88 67.89 C 50.10 62.96 50.09 58.02 49.88 53.09 C 44.95 52.90 40.03 52.90 35.11 53.11 M 53.08 53.11 C 52.86 58.03 52.88 62.95 53.15 67.86 C 58.05 68.13 62.96 68.13 67.85 67.86 C 68.13 62.97 68.13 58.07 67.86 53.18 C 62.94 52.89 58.00 52.87 53.08 53.11 Z" />
<path fill="#cdcdcd" opacity="1.00" d=" M 17.01 0.00 L 32.13 0.00 C 32.04 4.64 31.98 9.28 31.94 13.92 C 26.98 14.09 22.01 14.09 17.05 13.91 C 16.96 9.28 16.95 4.64 17.01 0.00 Z" />
<path fill="#d7d7d7" opacity="1.00" d=" M 35.00 0.00 L 49.92 0.00 C 50.08 4.62 50.06 9.25 49.85 13.88 C 44.94 14.13 40.02 14.14 35.11 13.87 C 34.95 9.25 34.91 4.62 35.00 0.00 Z" />
<path fill="#d7d7d7" opacity="1.00" d=" M 53.00 0.00 L 67.97 0.00 C 68.08 4.62 68.06 9.25 67.90 13.87 C 62.98 14.14 58.05 14.14 53.13 13.88 C 52.96 9.25 52.92 4.63 53.00 0.00 Z" />
<path fill="#cdcdcd" opacity="1.00" d=" M 71.01 0.00 L 85.00 0.00 L 85.00 13.93 C 80.35 14.06 75.70 14.05 71.05 13.93 C 70.97 9.29 70.95 4.64 71.01 0.00 Z" />
<path fill="#dadada" opacity="1.00" d=" M 0.00 17.04 C 4.61 16.90 9.22 16.94 13.83 17.11 C 14.15 22.02 14.16 26.95 13.84 31.85 C 9.23 32.04 4.61 32.09 0.00 31.99 L 0.00 17.04 Z" />
<path fill="#d7d7d7" opacity="1.00" d=" M 17.06 17.13 C 22.01 16.87 26.97 16.86 31.92 17.11 C 32.11 22.03 32.10 26.95 31.88 31.87 C 26.95 32.13 22.02 32.12 17.09 31.85 C 16.91 26.95 16.91 22.04 17.06 17.13 Z" />
<path fill="#cdcdcd" opacity="1.00" d=" M 35.08 17.02 C 40.04 16.95 44.99 16.95 49.95 17.05 C 50.05 22.01 50.05 26.98 49.96 31.94 C 44.99 32.06 40.02 32.06 35.04 31.95 C 34.94 26.97 34.94 21.99 35.08 17.02 Z" />
<path fill="#dadada" opacity="1.00" d=" M 53.13 17.13 C 58.04 16.87 62.96 16.88 67.87 17.13 C 68.13 22.04 68.12 26.96 67.87 31.87 C 62.97 32.12 58.07 32.13 53.17 31.87 C 52.88 26.96 52.85 22.04 53.13 17.13 Z" />
<path fill="#dadada" opacity="1.00" d=" M 71.15 17.17 C 75.76 16.96 80.38 16.90 85.00 17.01 L 85.00 32.02 C 80.39 32.08 75.78 32.03 71.17 31.88 C 70.86 26.98 70.86 22.07 71.15 17.17 Z" />
<path fill="#dadada" opacity="1.00" d=" M 0.00 35.04 C 4.61 34.88 9.23 34.92 13.83 35.15 C 14.13 40.06 14.15 44.99 13.88 49.91 C 9.25 50.04 4.63 50.07 0.00 49.98 L 0.00 35.04 Z" />
<path fill="#cdcdcd" opacity="1.00" d=" M 17.06 35.04 C 22.03 34.94 26.99 34.94 31.96 35.06 C 32.06 40.02 32.06 44.99 31.95 49.95 C 26.99 50.05 22.02 50.05 17.05 49.94 C 16.94 44.98 16.94 40.01 17.06 35.04 Z" />
<path fill="#d7d7d7" opacity="1.00" d=" M 35.10 35.15 C 40.02 34.90 44.95 34.88 49.87 35.09 C 50.09 40.02 50.10 44.96 49.91 49.89 C 44.98 50.12 40.05 50.12 35.12 49.88 C 34.90 44.97 34.90 40.06 35.10 35.15 Z" />
<path fill="#d7d7d7" opacity="1.00" d=" M 53.12 35.07 C 58.05 34.88 62.98 34.90 67.90 35.12 C 68.08 40.03 68.07 44.95 67.90 49.87 C 62.99 50.10 58.06 50.11 53.14 49.91 C 52.85 44.97 52.86 40.01 53.12 35.07 Z" />
<path fill="#d7d7d7" opacity="1.00" d=" M 71.12 35.11 C 75.75 34.96 80.37 34.92 85.00 35.01 L 85.00 50.12 C 80.38 50.08 75.77 50.00 71.15 49.88 C 70.87 44.96 70.86 40.03 71.12 35.11 Z" />
<path fill="#d7d7d7" opacity="1.00" d=" M 0.00 52.94 C 4.62 52.91 9.24 52.97 13.86 53.12 C 14.14 58.04 14.14 62.98 13.86 67.91 C 9.24 68.06 4.62 68.09 0.00 67.99 L 0.00 52.94 Z" />
<path fill="#dadada" opacity="1.00" d=" M 17.13 53.15 C 22.04 52.86 26.96 52.85 31.87 53.15 C 32.12 58.05 32.14 62.96 31.91 67.87 C 26.99 68.10 22.07 68.10 17.15 67.87 C 16.87 62.97 16.84 58.05 17.13 53.15 Z" />
<path fill="#d7d7d7" opacity="1.00" d=" M 35.11 53.11 C 40.03 52.90 44.95 52.90 49.88 53.09 C 50.09 58.02 50.10 62.96 49.88 67.89 C 44.97 68.11 40.05 68.10 35.13 67.91 C 34.90 62.98 34.89 58.04 35.11 53.11 Z" />
<path fill="#dadada" opacity="1.00" d=" M 53.08 53.11 C 58.00 52.87 62.94 52.89 67.86 53.18 C 68.13 58.07 68.13 62.97 67.85 67.86 C 62.96 68.13 58.05 68.13 53.15 67.86 C 52.88 62.95 52.86 58.03 53.08 53.11 Z" />
<path fill="#cdcdcd" opacity="1.00" d=" M 71.09 53.05 C 75.73 52.97 80.36 52.95 85.00 53.01 L 85.00 68.15 C 80.36 68.04 75.72 67.98 71.08 67.94 C 70.91 62.98 70.91 58.01 71.09 53.05 Z" />
<path fill="#d7d7d7" opacity="1.00" d=" M 0.00 70.99 C 4.63 70.91 9.27 70.96 13.90 71.12 C 14.06 75.75 14.10 80.37 13.99 85.00 L 0.00 85.00 L 0.00 70.99 Z" />
<path fill="#d7d7d7" opacity="1.00" d=" M 17.12 71.13 C 22.04 70.86 26.97 70.86 31.89 71.14 C 32.03 75.76 32.06 80.38 31.99 85.00 L 16.91 85.00 C 16.91 80.37 16.98 75.75 17.12 71.13 Z" />
<path fill="#cdcdcd" opacity="1.00" d=" M 35.07 71.07 C 40.02 70.91 44.98 70.91 49.94 71.07 C 50.03 75.72 50.05 80.36 49.99 85.00 L 35.01 85.00 C 34.95 80.36 34.97 75.71 35.07 71.07 Z" />
<path fill="#d7d7d7" opacity="1.00" d=" M 53.13 71.13 C 58.04 70.87 62.96 70.87 67.87 71.14 C 68.05 75.76 68.09 80.38 67.99 85.00 L 53.15 85.00 C 52.90 80.38 52.90 75.75 53.13 71.13 Z" />
<path fill="#cdcdcd" opacity="1.00" d=" M 71.07 71.06 C 75.71 70.97 80.36 70.95 85.00 71.01 L 85.00 85.00 L 70.87 85.00 C 70.95 80.35 71.02 75.71 71.07 71.06 Z" />
</svg>
