<?xml version="1.0" encoding="UTF-8" ?>
<!DOCTYPE svg PUBLIC "-//W3C//DTD SVG 1.1//EN" "http://www.w3.org/Graphics/SVG/1.1/DTD/svg11.dtd">
<svg width="85pt" height="85pt" viewBox="0 0 85 85" version="1.1" xmlns="http://www.w3.org/2000/svg">
<g id="#00000059">
<path fill="#000000" opacity="0.35" d=" M 16.22 29.03 C 16.47 25.77 19.83 23.79 22.88 24.03 C 35.60 23.93 48.32 24.04 61.04 23.98 C 64.10 23.76 67.86 24.87 68.63 28.24 C 69.46 33.79 68.80 39.42 69.04 45.01 C 68.91 48.01 69.40 51.25 68.12 54.06 C 65.38 58.35 59.59 56.70 55.34 57.02 C 54.86 59.96 54.28 63.84 50.80 64.63 C 45.32 65.29 39.70 65.28 34.21 64.63 C 30.73 63.86 30.14 59.96 29.66 57.02 C 26.11 56.87 22.30 57.57 18.96 56.12 C 15.66 54.32 16.02 50.18 15.96 46.98 C 16.15 41.00 15.67 35.00 16.22 29.03 Z" />
</g>
</svg>
