<?xml version="1.0" encoding="UTF-8" ?>
<!DOCTYPE svg PUBLIC "-//W3C//DTD SVG 1.1//EN" "http://www.w3.org/Graphics/SVG/1.1/DTD/svg11.dtd">
<svg width="85pt" height="85pt" viewBox="0 0 85 85" version="1.1" xmlns="http://www.w3.org/2000/svg">
<path fill="#000000" opacity="0.10" d=" M 20.30 16.41 C 23.49 15.77 26.77 15.95 30.00 15.95 C 40.01 16.09 50.03 15.95 60.04 15.95 C 62.89 16.06 66.58 16.01 68.09 18.95 C 69.18 21.46 68.97 24.29 69.07 26.97 C 68.93 37.99 69.04 49.02 69.04 60.04 C 68.91 62.87 68.99 66.55 66.08 68.08 C 63.55 69.21 60.69 68.97 57.99 69.07 C 46.98 68.93 35.97 69.03 24.97 69.05 C 22.12 68.94 18.44 68.99 16.91 66.06 C 15.71 63.22 16.04 60.01 15.93 57.00 C 16.12 45.98 15.90 34.95 16.00 23.94 C 15.91 20.93 16.82 17.02 20.30 16.41 M 21.94 31.95 C 20.60 34.89 20.61 38.46 21.54 41.52 C 22.90 44.76 26.75 44.81 29.71 45.30 C 30.20 48.04 30.13 51.53 32.94 53.06 C 35.85 54.44 39.42 54.30 42.45 53.38 C 45.83 52.03 45.87 48.02 46.34 44.98 C 51.03 44.86 55.85 45.54 60.44 44.38 C 64.37 42.64 64.41 37.65 63.84 34.02 C 63.38 30.86 60.23 28.83 57.16 29.04 C 48.43 28.86 39.70 29.11 30.98 28.95 C 27.81 29.00 23.74 28.72 21.94 31.95 Z" />
<path fill="#000000" opacity="0.35" d=" M 21.94 31.95 C 23.74 28.72 27.81 29.00 30.98 28.95 C 39.70 29.11 48.43 28.86 57.16 29.04 C 60.23 28.83 63.38 30.86 63.84 34.02 C 64.41 37.65 64.37 42.64 60.44 44.38 C 55.85 45.54 51.03 44.86 46.34 44.98 C 45.87 48.02 45.83 52.03 42.45 53.38 C 39.42 54.30 35.85 54.44 32.94 53.06 C 30.13 51.53 30.20 48.04 29.71 45.30 C 26.75 44.81 22.90 44.76 21.54 41.52 C 20.61 38.46 20.60 34.89 21.94 31.95 Z" />
</svg>
