<?xml version="1.0" encoding="UTF-8" ?>
<!DOCTYPE svg PUBLIC "-//W3C//DTD SVG 1.1//EN" "http://www.w3.org/Graphics/SVG/1.1/DTD/svg11.dtd">
<svg width="85pt" height="85pt" viewBox="0 0 85 85" version="1.1" xmlns="http://www.w3.org/2000/svg">
<path fill="#000000" opacity="0.10" d=" M 20.29 16.41 C 22.82 15.87 25.43 15.95 28.00 15.94 C 38.66 16.07 49.32 15.99 59.97 15.96 C 62.42 16.14 65.34 15.85 67.20 17.78 C 69.31 19.93 68.87 23.22 69.05 25.97 C 68.95 37.33 69.00 48.69 69.04 60.05 C 68.87 62.48 69.13 65.36 67.22 67.20 C 65.36 69.10 62.48 68.88 60.05 69.04 C 48.70 69.01 37.35 68.95 26.00 69.06 C 23.43 68.90 20.54 69.24 18.32 67.71 C 15.65 65.68 16.11 61.94 15.94 58.98 C 16.07 47.30 15.94 35.62 16.00 23.94 C 15.85 20.91 16.85 17.09 20.29 16.41 M 22.86 30.81 C 20.63 32.89 20.94 36.26 21.07 39.03 C 21.06 42.16 23.80 44.96 26.96 44.89 C 33.87 45.23 40.79 44.87 47.71 44.99 C 48.21 47.40 47.87 50.34 49.83 52.16 C 51.93 54.38 55.29 54.06 58.07 53.93 C 61.16 53.91 63.96 51.21 63.88 48.08 C 64.14 43.69 64.15 39.29 63.90 34.91 C 63.95 31.81 61.17 29.04 58.07 29.12 C 49.05 28.77 40.02 29.15 31.00 28.95 C 28.27 29.13 24.95 28.58 22.86 30.81 Z" />
<path fill="#000000" opacity="0.35" d=" M 22.86 30.81 C 24.95 28.58 28.27 29.13 31.00 28.95 C 40.02 29.15 49.05 28.77 58.07 29.12 C 61.17 29.04 63.95 31.81 63.90 34.91 C 64.15 39.29 64.14 43.69 63.88 48.08 C 63.96 51.21 61.16 53.91 58.07 53.93 C 55.29 54.06 51.93 54.38 49.83 52.16 C 47.87 50.34 48.21 47.40 47.71 44.99 C 40.79 44.87 33.87 45.23 26.96 44.89 C 23.80 44.96 21.06 42.16 21.07 39.03 C 20.94 36.26 20.63 32.89 22.86 30.81 Z" />
</svg>
