<?xml version="1.0" encoding="UTF-8" ?>
<!DOCTYPE svg PUBLIC "-//W3C//DTD SVG 1.1//EN" "http://www.w3.org/Graphics/SVG/1.1/DTD/svg11.dtd">
<svg width="85pt" height="85pt" viewBox="0 0 85 85" version="1.1" xmlns="http://www.w3.org/2000/svg">
<path fill="#000000" opacity="0.10" d=" M 20.33 16.41 C 31.83 15.34 43.46 16.39 55.01 15.94 C 58.66 16.04 62.52 15.53 66.00 16.88 C 68.97 18.35 68.92 22.07 69.04 24.91 C 69.02 36.29 68.95 47.66 69.06 59.03 C 68.90 61.58 69.19 64.44 67.70 66.67 C 65.69 69.31 61.99 68.88 59.05 69.07 C 47.72 68.95 36.39 69.01 25.06 69.05 C 22.39 68.88 19.06 69.11 17.30 66.66 C 15.67 64.12 16.10 60.89 15.93 58.00 C 16.11 46.64 15.90 35.28 16.00 23.92 C 15.91 20.91 16.84 17.00 20.33 16.41 M 33.55 25.61 C 28.80 27.71 29.83 33.87 30.17 38.04 C 30.55 42.24 35.25 42.95 38.60 43.32 C 39.33 45.90 39.65 49.28 42.56 50.38 C 45.39 51.30 48.60 51.30 51.43 50.38 C 54.35 49.27 54.68 45.88 55.41 43.28 C 58.52 42.88 62.75 42.49 63.60 38.76 C 64.16 34.56 65.33 28.59 61.07 25.91 C 57.62 24.44 53.69 25.11 50.03 24.98 C 44.55 25.27 38.93 24.32 33.55 25.61 Z" />
<path fill="#000000" opacity="0.35" d=" M 33.55 25.61 C 38.93 24.32 44.55 25.27 50.03 24.98 C 53.69 25.11 57.62 24.44 61.07 25.91 C 65.33 28.59 64.16 34.56 63.60 38.76 C 62.75 42.49 58.52 42.88 55.41 43.28 C 54.68 45.88 54.35 49.27 51.43 50.38 C 48.60 51.30 45.39 51.30 42.56 50.38 C 39.65 49.28 39.33 45.90 38.60 43.32 C 35.25 42.95 30.55 42.24 30.17 38.04 C 29.83 33.87 28.80 27.71 33.55 25.61 Z" />
</svg>
