<?xml version="1.0" encoding="UTF-8" ?>
<!DOCTYPE svg PUBLIC "-//W3C//DTD SVG 1.1//EN" "http://www.w3.org/Graphics/SVG/1.1/DTD/svg11.dtd">
<svg width="20pt" height="20pt" viewBox="0 0 20 20" version="1.1" xmlns="http://www.w3.org/2000/svg">
<g id="#2b73b1ff">
  <path fill="#2b73b1" opacity="1.00" d=" M 7.40 2.44 C 12.00 0.73 17.58 4.15 17.91 9.09 C 18.62 13.64 14.61 18.17 10.00 17.96 C 5.75 18.13 1.88 14.25 2.04 10.00 C 1.92 6.66 4.29 3.52 7.40 2.44 M 5.94 7.13 C 5.84 7.83 5.64 9.24 5.54 9.95 C 6.98 11.59 8.46 13.19 9.99 14.75 C 11.53 13.19 13.03 11.58 14.48 9.94 C 14.37 9.24 14.16 7.83 14.05 7.13 C 11.34 7.19 8.64 7.22 5.94 7.13 Z" />
</g>
<g id="#fefeffff">
  <path fill="#fefeff" opacity="1.00" d="M5.94082,7.66125 C8.64082,7.75125 11.3408,7.72125 14.0508,7.66125 C14.1608,8.36125 14.3708,9.77125 14.4808,10.4712 C13.0308,12.1112 11.5308,13.7212 9.99082,15.2812 C8.46082,13.7212 6.98082,12.1213 5.54082,10.4812 C5.64082,9.77125 5.84082,8.36125 5.94082,7.66125 M6.26546,5.4737 L13.8213,5.4737 L13.9775,6.92181 L6.04671,6.92181 L6.26546,5.4737 Z" style="stroke:none;fill-rule:evenodd;fill:#fefeff;fill-opacity:1;"/>
</g>
</svg>
