<?xml version="1.0" encoding="UTF-8" standalone="no"?>
<svg
   xmlns:dc="http://purl.org/dc/elements/1.1/"
   xmlns:cc="http://creativecommons.org/ns#"
   xmlns:rdf="http://www.w3.org/1999/02/22-rdf-syntax-ns#"
   xmlns:svg="http://www.w3.org/2000/svg"
   xmlns="http://www.w3.org/2000/svg"
   xmlns:sodipodi="http://sodipodi.sourceforge.net/DTD/sodipodi-0.dtd"
   xmlns:inkscape="http://www.inkscape.org/namespaces/inkscape"
   width="21.593275pt"
   height="21.52951pt"
   viewBox="0 0 71.977582 71.765037"
   version="1.1"
   id="svg248"
   sodipodi:docname="human3.svg"
   inkscape:version="0.92.2 5c3e80d, 2017-08-06">
  <metadata
     id="metadata254">
    <rdf:RDF>
      <cc:Work
         rdf:about="">
        <dc:format>image/svg+xml</dc:format>
        <dc:type
           rdf:resource="http://purl.org/dc/dcmitype/StillImage" />
        <dc:title />
      </cc:Work>
    </rdf:RDF>
  </metadata>
  <defs
     id="defs252" />
  <sodipodi:namedview
     pagecolor="#ffffff"
     bordercolor="#666666"
     borderopacity="1"
     objecttolerance="10"
     gridtolerance="10"
     guidetolerance="10"
     inkscape:pageopacity="0"
     inkscape:pageshadow="2"
     inkscape:window-width="640"
     inkscape:window-height="480"
     id="namedview250"
     showgrid="false"
     fit-margin-top="0"
     fit-margin-left="0"
     fit-margin-right="0"
     fit-margin-bottom="0"
     inkscape:zoom="8.3294116"
     inkscape:cx="6.412199"
     inkscape:cy="16.9331"
     inkscape:window-x="523"
     inkscape:window-y="7"
     inkscape:window-maximized="0"
     inkscape:current-layer="svg248" />
  <path
     d="m 26.752288,0.91062005 c 8.29,-1.52 17.39,-1.45 24.98,2.64999995 11.61,5.42 19.93,17.45 20.12,30.38 1.79,19.62 -15.87,38.52 -35.62,37.79 -19.89,0.95 -38.0899995,-17.92 -36.07999952,-37.79 0.58,-3.1 0.66,-6.3 1.52000002,-9.35 1.3,-2.98 2.86,-5.84 4.37,-8.72 5.0599995,-7.07 12.3399995,-12.51 20.7099995,-14.95999995 m 0.99,4.04999995 c -4.96,1.72 -10.05,4.06 -13.61,8.04 -10.9899995,9.78 -13.17999952,27.94 -4.8099995,40.07 4.9399995,7.49 13.0299995,13.02 21.9799995,14.23 5.99,0.65 12.23,0.17 17.74,-2.42 8.49,-4.04 15.2,-11.8 17.72,-20.87 1.73,-6.13 1.05,-12.68 -0.68,-18.73 -5.15,-15.1 -22.9,-24.76999995 -38.34,-20.32 z"
     id="path242"
     inkscape:connector-curvature="0"
     style="opacity:1;fill:#ffffff" />
  <path
     d="m 27.742288,4.96062 c 15.44,-4.44999995 33.19,5.22 38.34,20.32 1.73,6.05 2.41,12.6 0.68,18.73 -2.52,9.07 -9.23,16.83 -17.72,20.87 -5.51,2.59 -11.75,3.07 -17.74,2.42 -8.95,-1.21 -17.04,-6.74 -21.9799995,-14.23 -8.37000002,-12.13 -6.18,-30.29 4.8099995,-40.07 3.56,-3.98 8.65,-6.32 13.61,-8.04 m 5.91,9.64 c -4.07,1.89 -8.12,3.82 -12.13,5.83 -1.79,0.81 -3.51,2.4 -3.26,4.55 0.15,9.82 2.92,20.09 9.82,27.36 2.21,2.25 4.75,4.69 8.02,5.05 10.6,-4.89 15.91,-17 16.78,-28.13 -0.03,-2.65 1.19,-6.41 -1.73,-8 -3.37,-2.1 -7.1,-3.54 -10.61,-5.4 -2.15,-0.92 -4.57,-2.76 -6.89,-1.26 z"
     id="path244"
     inkscape:connector-curvature="0"
     style="opacity:1;fill:#2b73b1" />
</svg>
