<?xml version="1.0" encoding="UTF-8" ?>
<!DOCTYPE svg PUBLIC "-//W3C//DTD SVG 1.1//EN" "http://www.w3.org/Graphics/SVG/1.1/DTD/svg11.dtd">
<svg width="416pt" height="416pt" viewBox="0 0 416 416" version="1.1" xmlns="http://www.w3.org/2000/svg">
<path fill="#ffffff" opacity="1.00" d=" M 189.43 32.57 C 199.26 32.14 209.14 32.96 218.99 32.88 C 223.68 33.11 228.50 32.40 233.07 33.81 C 244.02 36.56 254.99 39.25 265.95 41.97 C 268.69 42.66 271.15 44.09 273.68 45.30 C 282.67 49.66 291.61 54.13 300.61 58.49 C 302.12 59.21 303.58 60.05 304.89 61.10 C 312.93 67.40 320.97 73.70 329.01 79.99 C 331.46 81.83 333.92 83.71 335.84 86.12 C 342.77 94.55 349.69 102.99 356.68 111.37 C 357.87 112.83 359.00 114.36 359.84 116.07 C 364.99 126.62 370.20 137.15 375.31 147.73 C 376.25 149.71 376.73 151.87 377.13 154.02 C 379.34 165.68 381.99 177.27 384.03 188.95 C 384.24 201.61 385.39 214.26 385.04 226.93 C 382.88 238.02 380.43 249.06 378.19 260.13 C 377.79 262.47 376.80 264.64 375.81 266.77 C 371.27 276.60 367.02 286.57 362.38 296.35 C 356.40 305.00 350.04 313.40 343.94 321.97 C 340.33 327.59 334.87 331.59 330.13 336.19 C 322.50 342.55 316.16 350.62 307.22 355.26 C 298.59 360.30 290.14 365.66 281.41 370.52 C 271.00 374.21 260.43 377.46 249.97 381.02 C 246.41 382.38 242.57 382.48 238.83 382.90 C 228.18 383.34 217.60 384.96 206.95 385.07 C 196.41 384.25 185.86 383.45 175.33 382.67 C 164.16 379.82 153.25 376.03 142.19 372.78 C 135.67 369.89 129.64 366.00 123.30 362.75 C 118.87 360.13 114.13 358.04 109.87 355.16 C 101.64 348.39 93.48 341.54 85.25 334.79 C 82.55 332.44 80.61 329.41 78.23 326.77 C 72.86 320.13 67.23 313.69 61.98 306.97 C 56.76 297.83 51.86 288.50 46.75 279.30 C 44.63 275.64 43.83 271.44 42.50 267.47 C 40.10 259.25 37.30 251.13 35.11 242.86 C 34.87 237.21 34.00 231.61 33.85 225.95 C 33.32 218.04 31.82 210.02 33.33 202.13 C 35.70 186.50 37.68 170.81 40.19 155.20 C 47.12 140.65 54.77 126.41 62.02 112.00 C 63.37 109.44 64.48 106.65 66.60 104.60 C 78.38 92.70 89.89 80.53 101.69 68.65 C 103.70 66.53 106.49 65.45 108.98 64.02 C 122.91 56.61 136.71 48.94 150.70 41.66 C 163.52 38.31 176.51 35.52 189.43 32.57 M 189.39 53.41 C 178.65 56.07 167.72 58.04 157.10 61.13 C 143.34 68.29 129.84 75.98 116.02 83.03 C 110.95 86.24 108.02 91.69 103.77 95.77 C 97.06 102.40 90.43 109.11 83.72 115.73 C 80.27 118.96 78.89 123.62 76.67 127.67 C 71.87 136.88 67.74 146.45 62.32 155.33 C 59.18 160.41 59.34 166.58 58.30 172.28 C 57.16 181.31 55.56 190.27 54.30 199.28 C 53.79 204.03 52.26 208.81 53.41 213.59 C 54.44 218.14 53.58 222.86 54.57 227.42 C 55.55 232.20 54.17 237.28 56.10 241.90 C 58.22 247.64 59.59 253.60 61.62 259.37 C 63.06 263.54 63.58 268.12 66.16 271.83 C 69.50 277.85 72.97 283.79 76.05 289.95 C 79.46 296.57 84.74 301.87 89.33 307.65 C 92.78 311.54 95.83 315.79 99.45 319.53 C 107.11 325.88 114.64 332.39 122.46 338.55 C 134.95 345.35 146.96 353.66 161.00 357.00 C 170.46 359.84 179.95 363.65 190.03 363.05 C 200.53 364.46 211.19 364.55 221.74 363.70 C 226.83 362.66 232.07 363.28 237.15 362.23 C 243.02 362.14 248.38 359.59 253.87 357.86 C 261.27 355.36 269.16 354.00 275.95 349.96 C 283.01 345.67 290.11 341.44 297.20 337.20 C 303.70 332.84 309.23 327.25 314.82 321.82 C 321.04 317.07 326.55 311.38 330.80 304.79 C 336.81 295.75 344.77 287.78 348.37 277.35 C 351.80 268.84 356.74 260.91 358.94 251.95 C 360.60 241.91 363.51 232.08 364.93 222.01 C 363.01 212.19 364.66 202.13 363.76 192.23 C 361.73 181.95 359.58 171.70 357.62 161.41 C 357.11 159.01 356.84 156.51 355.67 154.31 C 351.46 145.87 347.18 137.46 343.03 128.99 C 341.94 126.82 340.93 124.57 339.25 122.78 C 333.62 116.37 328.41 109.60 322.91 103.09 C 319.07 97.57 313.12 94.15 308.01 89.97 C 301.32 84.98 295.32 78.90 287.68 75.32 C 279.88 71.46 272.11 67.56 264.34 63.65 C 262.02 62.46 259.55 61.59 257.02 60.98 C 247.41 58.61 237.81 56.22 228.22 53.77 C 223.26 52.41 218.07 53.17 213.00 53.00 C 205.14 53.26 197.21 52.45 189.39 53.41 Z" />
<path fill="#2b73b1" opacity="1.00" d=" M 189.39 53.41 C 197.21 52.45 205.14 53.26 213.00 53.00 C 218.07 53.17 223.26 52.41 228.22 53.77 C 237.81 56.22 247.41 58.61 257.02 60.98 C 259.55 61.59 262.02 62.46 264.34 63.65 C 272.11 67.56 279.88 71.46 287.68 75.32 C 295.32 78.90 301.32 84.98 308.01 89.97 C 313.12 94.15 319.07 97.57 322.91 103.09 C 328.41 109.60 333.62 116.37 339.25 122.78 C 340.93 124.57 341.94 126.82 343.03 128.99 C 347.18 137.46 351.46 145.87 355.67 154.31 C 356.84 156.51 357.11 159.01 357.62 161.41 C 359.58 171.70 361.73 181.95 363.76 192.23 C 364.66 202.13 363.01 212.19 364.93 222.01 C 363.51 232.08 360.60 241.91 358.94 251.95 C 356.74 260.91 351.80 268.84 348.37 277.35 C 344.77 287.78 336.81 295.75 330.80 304.79 C 326.55 311.38 321.04 317.07 314.82 321.82 C 309.23 327.25 303.70 332.84 297.20 337.20 C 290.11 341.44 283.01 345.67 275.95 349.96 C 269.16 354.00 261.27 355.36 253.87 357.86 C 248.38 359.59 243.02 362.14 237.15 362.23 C 232.07 363.28 226.83 362.66 221.74 363.70 C 211.19 364.55 200.53 364.46 190.03 363.05 C 179.95 363.65 170.46 359.84 161.00 357.00 C 146.96 353.66 134.95 345.35 122.46 338.55 C 114.64 332.39 107.11 325.88 99.45 319.53 C 95.83 315.79 92.78 311.54 89.33 307.65 C 84.74 301.87 79.46 296.57 76.05 289.95 C 72.97 283.79 69.50 277.85 66.16 271.83 C 63.58 268.12 63.06 263.54 61.62 259.37 C 59.59 253.60 58.22 247.64 56.10 241.90 C 54.17 237.28 55.55 232.20 54.57 227.42 C 53.58 222.86 54.44 218.14 53.41 213.59 C 52.26 208.81 53.79 204.03 54.30 199.28 C 55.56 190.27 57.16 181.31 58.30 172.28 C 59.34 166.58 59.18 160.41 62.32 155.33 C 67.74 146.45 71.87 136.88 76.67 127.67 C 78.89 123.62 80.27 118.96 83.72 115.73 C 90.43 109.11 97.06 102.40 103.77 95.77 C 108.02 91.69 110.95 86.24 116.02 83.03 C 129.84 75.98 143.34 68.29 157.10 61.13 C 167.72 58.04 178.65 56.07 189.39 53.41 M 203.42 102.49 C 183.42 110.97 164.26 121.27 144.60 130.51 C 138.28 133.58 131.37 136.21 126.67 141.69 C 123.10 145.51 121.70 150.83 122.06 155.97 C 122.96 195.23 131.67 235.39 153.35 268.63 C 159.68 278.40 167.50 287.08 175.64 295.36 C 184.52 303.94 194.83 311.98 207.12 314.75 C 211.22 314.43 214.96 312.34 218.63 310.60 C 234.66 301.97 246.56 287.77 257.91 273.90 C 268.94 258.71 276.98 241.49 282.67 223.65 C 289.93 200.53 293.29 176.18 292.74 151.97 C 292.34 143.70 285.37 137.80 278.41 134.49 C 258.02 124.61 237.73 114.52 217.32 104.69 C 213.03 102.78 208.11 100.77 203.42 102.49 Z" />
<path fill="#ffffff" opacity="1.00" d=" M 203.42 102.49 C 208.11 100.77 213.03 102.78 217.32 104.69 C 237.73 114.52 258.02 124.61 278.41 134.49 C 285.37 137.80 292.34 143.70 292.74 151.97 C 293.29 176.18 289.93 200.53 282.67 223.65 C 276.98 241.49 268.94 258.71 257.91 273.90 C 246.56 287.77 234.66 301.97 218.63 310.60 C 214.96 312.34 211.22 314.43 207.12 314.75 C 194.83 311.98 184.52 303.94 175.64 295.36 C 167.50 287.08 159.68 278.40 153.35 268.63 C 131.67 235.39 122.96 195.23 122.06 155.97 C 121.70 150.83 123.10 145.51 126.67 141.69 C 131.37 136.21 138.28 133.58 144.60 130.51 C 164.26 121.27 183.42 110.97 203.42 102.49 Z" />
</svg>
