<?xml version="1.0"?>
<svg version="1.1" xmlns="http://www.w3.org/2000/svg" xmlns:xlink="http://www.w3.org/1999/xlink" width="100" height="100">
    <desc iVinci="yes" version="4.6" gridStep="20" showGrid="no" snapToGrid="no" codePlatform="0"/>
    <g id="Layer1" name="Layer 1" opacity="1">
        <g id="Shape1">
            <desc shapeID="1" type="0" basicInfo-basicType="4" basicInfo-roundedRectRadius="12" basicInfo-polygonSides="6" basicInfo-starPoints="5" bounding="rect(-7.96459,-7.96458,15.9292,15.9292)" text="" font-familyName="Helvetica" font-pixelSize="20" font-bold="0" font-underline="0" font-alignment="1" strokeStyle="0" markerStart="0" markerEnd="0" shadowEnabled="0" shadowOffsetX="0" shadowOffsetY="2" shadowBlur="4" shadowOpacity="160" blurEnabled="0" blurRadius="4" transform="matrix(1,0,0,1,10.0108,9.82194)" pers-center="0,0" pers-size="0,0" pers-start="0,0" pers-end="0,0" locked="0" mesh="" flag=""/>
            <path id="shapePath1" d="M2.04624,9.82194 C2.04624,5.42322 5.61211,1.85735 10.0108,1.85736 C14.4095,1.85736 17.9754,5.42322 17.9754,9.82194 C17.9754,14.2207 14.4095,17.7865 10.0108,17.7865 C5.6121,17.7865 2.04624,14.2207 2.04624,9.82194 Z" style="stroke:none;fill-rule:evenodd;fill:#2b73b1;fill-opacity:1;"/>
        </g>
        <g id="Shape2">
            <desc shapeID="2" type="0" basicInfo-basicType="0" basicInfo-roundedRectRadius="12" basicInfo-polygonSides="6" basicInfo-starPoints="5" bounding="rect(-4.47,-4.90377,8.94,9.80755)" text="" font-familyName="Helvetica" font-pixelSize="20" font-bold="0" font-underline="0" font-alignment="1" strokeStyle="0" markerStart="0" markerEnd="0" shadowEnabled="0" shadowOffsetX="0" shadowOffsetY="2" shadowBlur="4" shadowOpacity="160" blurEnabled="0" blurRadius="4" transform="matrix(1,0,0,1,10.0108,10.3775)" pers-center="0,0" pers-size="0,0" pers-start="0,0" pers-end="0,0" locked="0" mesh="" flag=""/>
            <path id="shapePath2" d="M5.94082,7.66125 C8.64082,7.75125 11.3408,7.72125 14.0508,7.66125 C14.1608,8.36125 14.3708,9.77125 14.4808,10.4712 C13.0308,12.1112 11.5308,13.7212 9.99082,15.2812 C8.46082,13.7212 6.98082,12.1213 5.54082,10.4812 C5.64082,9.77125 5.84082,8.36125 5.94082,7.66125 M6.26546,5.4737 L13.8213,5.4737 L13.9775,6.92181 L6.04671,6.92181 L6.26546,5.4737 Z" style="stroke:none;fill-rule:evenodd;fill:#fefeff;fill-opacity:1;"/>
        </g>
    </g>
</svg>
