<?xml version="1.0" encoding="UTF-8" ?>
<!DOCTYPE svg PUBLIC "-//W3C//DTD SVG 1.1//EN" "http://www.w3.org/Graphics/SVG/1.1/DTD/svg11.dtd">
<svg width="85pt" height="85pt" viewBox="0 0 85 85" version="1.1" xmlns="http://www.w3.org/2000/svg">
<path fill="#000000" opacity="0.20" d=" M 20.18 16.45 C 23.40 15.76 26.71 15.94 29.97 15.94 C 39.99 16.10 50.02 15.94 60.04 15.95 C 62.86 16.07 66.56 16.00 68.07 18.92 C 69.19 21.45 68.97 24.32 69.07 27.02 C 68.92 38.02 69.04 49.03 69.04 60.04 C 68.87 62.69 69.06 66.00 66.61 67.74 C 64.38 69.19 61.54 68.92 59.00 69.07 C 48.00 68.97 37.00 68.97 26.00 69.07 C 23.03 68.89 19.29 69.32 17.27 66.63 C 15.82 64.40 16.10 61.56 15.94 59.02 C 16.05 47.69 15.98 36.36 15.96 25.03 C 15.93 21.81 16.30 17.25 20.18 16.45 M 28.07 20.24 C 28.04 22.47 27.97 24.71 27.94 26.95 C 25.00 26.51 22.03 26.35 19.06 26.23 C 21.82 27.76 24.81 28.81 27.91 29.40 C 28.04 30.88 27.99 32.37 28.04 33.85 C 25.07 33.38 21.99 33.22 19.07 33.94 C 21.99 34.85 24.94 35.68 27.93 36.30 C 28.01 37.83 28.01 39.37 28.03 40.90 C 25.06 40.55 22.08 40.34 19.09 40.27 C 21.87 41.74 24.85 42.74 27.91 43.45 C 28.04 44.93 28.00 46.43 28.03 47.92 C 25.06 47.54 22.08 47.34 19.09 47.24 C 21.85 48.76 24.85 49.74 27.90 50.44 C 28.04 51.95 27.99 53.46 28.03 54.97 C 25.08 54.53 22.11 54.29 19.14 54.20 C 21.85 55.79 24.83 56.84 27.92 57.41 C 28.03 58.90 28.01 60.40 28.03 61.89 C 25.04 61.54 22.04 61.36 19.04 61.29 C 22.41 63.12 26.13 64.14 29.92 64.70 C 29.95 62.42 30.05 60.16 30.07 57.89 C 33.11 58.38 36.16 58.78 39.23 58.99 C 36.48 57.15 33.33 56.07 30.09 55.50 C 30.01 53.95 29.98 52.40 29.96 50.86 C 33.03 51.38 36.12 51.77 39.23 51.99 C 36.48 50.15 33.34 49.08 30.10 48.50 C 30.02 46.96 29.98 45.41 29.95 43.86 C 33.03 44.37 36.12 44.78 39.23 44.99 C 36.48 43.16 33.34 42.08 30.10 41.51 C 30.02 39.96 29.98 38.40 29.96 36.85 C 33.01 37.38 36.09 37.79 39.19 38.00 C 36.47 36.11 33.33 35.08 30.10 34.51 C 30.02 32.96 29.97 31.41 29.96 29.86 C 33.02 30.37 36.09 30.77 39.19 30.98 C 36.48 29.10 33.34 28.08 30.11 27.53 C 30.02 25.97 29.98 24.41 29.95 22.85 C 33.02 23.37 36.11 23.78 39.23 24.00 C 35.95 21.63 32.00 20.77 28.07 20.24 M 45.77 23.97 C 48.88 23.77 51.97 23.38 55.04 22.86 C 55.02 24.41 54.99 25.96 54.90 27.51 C 51.67 28.07 48.52 29.13 45.79 30.99 C 48.89 30.77 51.98 30.37 55.04 29.85 C 55.02 31.40 54.99 32.95 54.91 34.50 C 51.67 35.06 48.53 36.14 45.80 37.99 C 48.89 37.78 51.97 37.38 55.03 36.86 C 55.02 38.40 54.99 39.95 54.92 41.49 C 51.68 42.07 48.52 43.12 45.79 44.99 C 48.89 44.77 51.98 44.37 55.05 43.85 C 55.02 45.41 54.98 46.96 54.90 48.51 C 51.66 49.08 48.52 50.14 45.79 51.99 C 48.89 51.77 51.98 51.37 55.04 50.86 C 55.01 52.40 54.99 53.95 54.91 55.50 C 51.67 56.06 48.53 57.14 45.79 58.98 C 48.85 58.78 51.90 58.38 54.93 57.89 C 54.96 60.15 55.05 62.42 55.08 64.68 C 58.86 64.15 62.59 63.21 65.89 61.23 C 62.91 61.32 59.93 61.53 56.97 61.92 C 56.99 60.43 56.96 58.94 57.08 57.45 C 60.16 56.76 63.12 55.68 65.97 54.32 C 62.96 54.34 59.96 54.58 56.96 54.87 C 57.01 53.39 56.95 51.90 57.09 50.42 C 60.17 49.81 63.13 48.75 65.88 47.24 C 62.90 47.31 59.93 47.54 56.98 47.93 C 56.99 46.42 56.97 44.91 57.08 43.40 C 60.17 42.84 63.14 41.79 65.86 40.21 C 62.89 40.30 59.91 40.53 56.97 40.96 C 57.00 39.45 56.96 37.95 57.09 36.45 C 60.14 35.75 63.14 34.76 65.89 33.24 C 62.91 33.34 59.93 33.54 56.97 33.92 C 56.98 32.37 56.99 30.82 57.07 29.27 C 59.76 28.66 62.46 28.06 65.15 27.44 C 64.88 27.03 64.35 26.23 64.09 25.82 C 61.74 26.20 59.42 26.72 57.08 27.10 C 57.05 24.81 56.95 22.52 56.93 20.24 C 53.01 20.78 49.05 21.63 45.77 23.97 Z" />
</svg>
