<?xml version="1.0" encoding="UTF-8" ?>
<!DOCTYPE svg PUBLIC "-//W3C//DTD SVG 1.1//EN" "http://www.w3.org/Graphics/SVG/1.1/DTD/svg11.dtd">
<svg width="85pt" height="85pt" viewBox="0 0 85 85" version="1.1" xmlns="http://www.w3.org/2000/svg">
<path fill="#25364b" opacity="0.63" d=" M 25.81 27.39 C 35.80 26.27 47.00 22.92 56.17 28.74 C 64.67 33.94 66.48 44.82 66.42 53.99 C 65.28 63.52 64.33 73.22 61.02 82.29 C 49.37 82.58 37.71 82.51 26.06 82.33 C 27.06 76.11 29.29 69.99 28.46 63.61 C 19.83 63.21 10.96 64.16 2.69 61.07 C 2.47 49.93 2.41 38.77 2.73 27.63 C 5.13 27.59 7.54 27.51 9.93 27.81 C 15.21 28.81 20.51 27.43 25.81 27.39 M 42.49 33.40 C 45.92 35.19 49.66 36.29 53.47 36.92 C 50.84 33.47 46.57 32.62 42.49 33.40 M 30.87 42.60 C 33.48 45.73 36.34 48.65 39.46 51.28 C 38.26 47.06 35.10 43.81 30.87 42.60 M 10.65 51.64 C 14.73 53.61 19.28 53.61 23.36 51.64 C 19.13 51.33 14.88 51.33 10.65 51.64 M 51.36 71.35 C 51.67 67.12 51.67 62.87 51.36 58.64 C 49.39 62.72 49.39 67.27 51.36 71.35 Z" />
</svg>
