<?xml version="1.0" encoding="UTF-8" ?>
<!DOCTYPE svg PUBLIC "-//W3C//DTD SVG 1.1//EN" "http://www.w3.org/Graphics/SVG/1.1/DTD/svg11.dtd">
<svg width="85pt" height="85pt" viewBox="0 0 85 85" version="1.1" xmlns="http://www.w3.org/2000/svg">
<path fill="#25364b" opacity="0.63" d=" M 22.91 2.70 C 35.08 2.47 47.27 2.43 59.44 2.73 C 58.70 7.62 58.44 12.58 57.72 17.48 C 56.82 23.57 58.35 29.62 58.70 35.69 C 60.93 51.06 65.92 66.77 62.09 82.30 C 49.95 82.54 37.80 82.55 25.65 82.29 C 27.03 73.32 28.21 64.26 27.41 55.17 C 25.57 42.26 22.60 29.50 21.97 16.44 C 21.11 11.83 22.11 7.24 22.91 2.70 M 33.63 13.67 C 33.33 17.88 33.33 22.12 33.63 26.33 C 34.33 24.26 35.10 22.19 35.34 20.00 C 35.11 17.82 34.33 15.74 33.63 13.67 M 47.66 34.00 C 47.90 36.19 48.67 38.27 49.37 40.34 C 49.67 36.12 49.67 31.89 49.37 27.67 C 48.67 29.74 47.89 31.82 47.66 34.00 M 45.63 52.67 C 45.33 56.88 45.33 61.12 45.63 65.33 C 46.33 63.26 47.10 61.19 47.34 59.00 C 47.11 56.82 46.33 54.74 45.63 52.67 M 36.66 70.00 C 36.89 72.18 37.67 74.26 38.37 76.33 C 38.67 72.12 38.67 67.89 38.37 63.67 C 37.67 65.74 36.89 67.82 36.66 70.00 Z" />
</svg>
