<?xml version="1.0" encoding="UTF-8" ?>
<!DOCTYPE svg PUBLIC "-//W3C//DTD SVG 1.1//EN" "http://www.w3.org/Graphics/SVG/1.1/DTD/svg11.dtd">
<svg width="85pt" height="85pt" viewBox="0 0 85 85" version="1.1" xmlns="http://www.w3.org/2000/svg">
<path fill="#000000" opacity="0.14" d=" M 42.51 27.72 C 40.94 20.77 40.51 13.53 41.98 6.51 C 44.60 13.34 43.07 20.68 42.51 27.72 Z" />
<path fill="#000000" opacity="0.14" d=" M 39.78 27.89 C 37.77 21.40 34.82 14.57 36.70 7.68 C 39.00 14.16 39.69 21.06 39.78 27.89 Z" />
<path fill="#000000" opacity="0.14" d=" M 45.00 26.94 C 44.85 20.30 45.64 13.59 48.28 7.44 C 49.25 14.14 47.34 20.73 45.00 26.94 Z" />
<path fill="#000000" opacity="0.14" d=" M 37.08 27.90 C 33.69 22.01 30.26 15.70 30.45 8.70 C 33.96 14.57 35.97 21.18 37.08 27.90 Z" />
<path fill="#000000" opacity="0.14" d=" M 47.74 27.59 C 48.74 20.91 50.53 14.18 54.55 8.64 C 54.28 15.52 50.97 21.69 47.74 27.59 Z" />
<path fill="#000000" opacity="0.14" d=" M 50.43 28.14 C 52.83 22.19 55.03 15.75 60.09 11.48 C 58.71 17.92 54.73 23.32 50.43 28.14 Z" />
<path fill="#000000" opacity="0.15" d=" M 34.48 28.72 C 30.43 23.69 25.80 18.46 25.15 11.75 C 29.37 16.71 32.39 22.57 34.48 28.72 Z" />
<path fill="#000000" opacity="0.15" d=" M 19.67 15.36 C 25.23 18.80 28.78 24.46 31.98 30.00 C 27.00 25.97 22.17 21.40 19.67 15.36 Z" />
<path fill="#000000" opacity="0.15" d=" M 52.34 30.36 C 55.73 24.63 59.34 18.59 65.33 15.23 C 62.30 21.26 57.44 26.05 52.34 30.36 Z" />
<path fill="#000000" opacity="0.15" d=" M 15.17 20.21 C 21.69 21.38 25.79 27.39 30.00 31.97 C 24.40 28.97 19.34 25.01 15.17 20.21 Z" />
<path fill="#000000" opacity="0.15" d=" M 55.47 31.24 C 59.31 26.46 63.64 21.66 69.66 19.70 C 65.97 24.67 60.93 28.41 55.47 31.24 Z" />
<path fill="#000000" opacity="0.14" d=" M 56.09 34.37 C 61.39 30.07 66.94 25.33 73.90 24.25 C 68.96 29.13 62.53 32.02 56.09 34.37 Z" />
<path fill="#000000" opacity="0.15" d=" M 11.42 24.81 C 18.16 25.96 23.67 30.22 28.76 34.51 C 22.47 32.31 16.40 29.30 11.42 24.81 Z" />
<path fill="#000000" opacity="0.15" d=" M 8.52 30.46 C 15.59 30.10 21.90 33.73 27.86 37.04 C 21.11 35.92 14.45 33.93 8.52 30.46 Z" />
<path fill="#000000" opacity="0.14" d=" M 56.51 37.00 C 62.73 33.89 69.11 29.90 76.36 30.46 C 70.25 33.94 63.45 36.00 56.51 37.00 Z" />
<path fill="#000000" opacity="0.14" d=" M 7.12 35.37 C 14.20 35.70 21.18 37.26 27.79 39.80 C 22.15 39.55 16.46 39.29 10.96 37.93 C 9.43 37.54 8.38 36.23 7.12 35.37 Z" />
<path fill="#000000" opacity="0.14" d=" M 56.47 39.77 C 63.62 37.53 71.01 34.94 78.63 35.82 C 71.83 39.44 63.96 39.41 56.47 39.77 Z" />
<path fill="#000000" opacity="0.14" d=" M 5.57 41.97 C 12.87 40.42 20.42 40.89 27.65 42.51 C 20.33 42.84 12.62 45.00 5.57 41.97 Z" />
<path fill="#000000" opacity="0.14" d=" M 56.52 42.48 C 64.06 41.00 71.89 40.22 79.45 42.02 C 72.10 45.05 64.13 42.82 56.52 42.48 Z" />
<path fill="#000000" opacity="0.15" d=" M 6.23 48.09 C 12.86 45.84 19.86 44.95 26.85 45.01 C 20.29 47.36 13.25 49.87 6.23 48.09 Z" />
<path fill="#000000" opacity="0.15" d=" M 58.21 45.18 C 65.13 44.84 72.04 45.95 78.58 48.23 C 71.63 49.92 64.71 47.41 58.21 45.18 Z" />
<path fill="#000000" opacity="0.16" d=" M 7.58 54.52 C 13.55 51.01 20.23 48.89 27.05 47.85 C 21.09 51.26 14.68 54.79 7.58 54.52 Z" />
<path fill="#000000" opacity="0.15" d=" M 57.23 47.70 C 64.22 48.89 71.10 50.97 77.30 54.46 C 69.95 55.04 63.40 51.12 57.23 47.70 Z" />
<path fill="#000000" opacity="0.15" d=" M 10.23 60.65 C 15.17 55.69 21.67 52.78 28.16 50.44 C 22.83 54.74 17.26 59.67 10.23 60.65 Z" />
<path fill="#000000" opacity="0.15" d=" M 56.21 50.35 C 62.71 53.04 70.07 55.30 74.50 61.13 C 67.56 59.23 61.63 54.93 56.21 50.35 Z" />
<path fill="#000000" opacity="0.15" d=" M 13.52 65.85 C 18.13 60.23 24.09 55.91 30.37 52.35 C 26.83 56.50 22.91 60.34 18.67 63.77 C 17.22 64.99 15.28 65.30 13.52 65.85 Z" />
<path fill="#000000" opacity="0.16" d=" M 55.06 52.98 C 60.59 56.65 67.67 59.79 70.14 66.42 C 64.35 62.89 59.17 58.38 55.06 52.98 Z" />
<path fill="#000000" opacity="0.16" d=" M 52.96 55.03 C 58.38 59.23 63.16 64.36 66.31 70.50 C 60.10 67.16 56.44 60.88 52.96 55.03 Z" />
<path fill="#000000" opacity="0.16" d=" M 18.69 70.52 C 21.14 64.26 26.16 59.56 31.29 55.45 C 28.16 61.25 24.26 66.82 18.69 70.52 Z" />
<path fill="#000000" opacity="0.16" d=" M 24.20 74.47 C 24.91 67.24 30.03 61.59 34.35 56.14 C 31.94 62.72 28.84 69.15 24.20 74.47 Z" />
<path fill="#000000" opacity="0.15" d=" M 37.01 56.56 C 35.68 63.93 33.99 71.55 29.45 77.68 C 29.72 70.03 33.64 63.22 37.01 56.56 Z" />
<path fill="#000000" opacity="0.15" d=" M 50.38 56.25 C 54.81 61.90 60.12 67.75 60.78 75.22 C 56.07 69.68 52.74 63.10 50.38 56.25 Z" />
<path fill="#000000" opacity="0.15" d=" M 39.64 57.15 C 39.52 64.76 39.15 72.63 35.81 79.62 C 34.69 71.91 37.34 64.38 39.64 57.15 Z" />
<path fill="#000000" opacity="0.16" d=" M 41.96 79.77 C 40.36 72.38 40.94 64.74 42.47 57.40 C 42.96 64.82 44.92 72.61 41.96 79.77 Z" />
<path fill="#000000" opacity="0.16" d=" M 47.79 57.34 C 51.15 63.57 55.17 70.15 54.48 77.52 C 51.07 71.25 48.91 64.37 47.79 57.34 Z" />
<path fill="#000000" opacity="0.15" d=" M 45.01 57.88 C 47.62 64.32 48.78 71.18 49.73 78.03 C 49.16 77.90 48.01 77.63 47.43 77.50 C 45.99 71.05 44.90 64.51 45.01 57.88 Z" />
</svg>
