<?xml version="1.0" encoding="UTF-8" ?>
<!DOCTYPE svg PUBLIC "-//W3C//DTD SVG 1.1//EN" "http://www.w3.org/Graphics/SVG/1.1/DTD/svg11.dtd">
<svg width="85pt" height="85pt" viewBox="0 0 85 85" version="1.1" xmlns="http://www.w3.org/2000/svg">
<path fill="#333333" opacity="0.50" d=" M 25.51 30.01 C 36.84 29.99 48.16 29.99 59.49 30.01 C 59.13 32.35 58.73 34.67 58.29 36.99 C 47.76 37.01 37.23 37.01 26.71 36.99 C 26.27 34.67 25.87 32.34 25.51 30.01 Z" />
<path fill="#181818" opacity="0.50" d=" M 27.22 39.01 C 37.41 38.99 47.59 38.99 57.78 39.01 C 57.42 41.34 57.02 43.66 56.61 45.97 C 47.20 46.02 37.80 46.02 28.39 45.97 C 27.98 43.66 27.58 41.34 27.22 39.01 Z" />
<path fill="#000000" opacity="0.50" d=" M 28.95 48.02 C 37.98 47.99 47.02 47.99 56.05 48.02 C 55.71 50.35 55.31 52.67 54.88 54.98 C 46.63 55.01 38.37 55.01 30.12 54.98 C 29.69 52.67 29.29 50.34 28.95 48.02 Z" />
</svg>
