<?xml version="1.0" encoding="UTF-8" ?>
<!DOCTYPE svg PUBLIC "-//W3C//DTD SVG 1.1//EN" "http://www.w3.org/Graphics/SVG/1.1/DTD/svg11.dtd">
<svg width="20pt" height="20pt" viewBox="0 0 20 20" version="1.1" xmlns="http://www.w3.org/2000/svg">
<g id="#ffffffff">
<path fill="#ffffff" opacity="1.00" d=" M 13.30 5.14 C 13.82 5.67 14.34 6.19 14.87 6.70 C 14.40 7.14 13.48 8.02 13.01 8.46 C 13.35 9.38 13.70 10.29 14.06 11.19 C 13.18 10.87 12.31 10.52 11.45 10.15 C 9.76 11.79 7.98 13.41 5.73 14.27 C 6.59 12.02 8.21 10.24 9.86 8.54 C 9.48 7.69 9.13 6.84 8.82 5.97 C 9.72 6.31 10.63 6.65 11.54 6.98 C 11.98 6.52 12.86 5.60 13.30 5.14 Z" />
</g>
<g id="#333333ff">
<path fill="#333333" opacity="1.00" d=" M 8.17 2.25 C 13.31 0.83 18.79 5.62 17.87 10.91 C 17.65 17.30 8.54 20.44 4.39 15.60 C -0.13 11.68 2.30 3.25 8.17 2.25 M 13.30 5.14 C 12.86 5.60 11.98 6.52 11.54 6.98 C 10.63 6.65 9.72 6.31 8.82 5.97 C 9.13 6.84 9.48 7.69 9.86 8.54 C 8.21 10.24 6.59 12.02 5.73 14.27 C 7.98 13.41 9.76 11.79 11.45 10.15 C 12.31 10.52 13.18 10.87 14.06 11.19 C 13.70 10.29 13.35 9.38 13.01 8.46 C 13.48 8.02 14.40 7.14 14.87 6.70 C 14.34 6.19 13.82 5.67 13.30 5.14 Z" />
</g>
</svg>
