<?xml version="1.0" encoding="UTF-8" ?>
<!DOCTYPE svg PUBLIC "-//W3C//DTD SVG 1.1//EN" "http://www.w3.org/Graphics/SVG/1.1/DTD/svg11.dtd">
<svg width="85pt" height="85pt" viewBox="0 0 85 85" version="1.1" xmlns="http://www.w3.org/2000/svg">
<path fill="#000000" opacity="0.35" d=" M 22.94 16.02 C 27.31 15.98 31.69 15.98 36.06 16.02 C 35.95 18.17 36.19 20.40 35.53 22.48 C 33.35 27.11 25.66 27.11 23.47 22.49 C 22.80 20.41 23.05 18.17 22.94 16.02 Z" />
<path fill="#000000" opacity="0.35" d=" M 39.67 27.94 C 41.44 23.74 43.36 19.59 46.00 15.85 C 48.63 19.60 50.57 23.74 52.34 27.94 C 48.11 28.04 43.89 28.04 39.67 27.94 Z" />
<path fill="#000000" opacity="0.35" d=" M 52.69 36.77 C 55.19 31.34 57.66 25.83 61.00 20.85 C 64.33 25.85 66.84 31.34 69.33 36.79 C 63.79 37.11 58.23 37.14 52.69 36.77 Z" />
<path fill="#000000" opacity="0.20" d=" M 22.98 25.26 C 27.10 27.41 31.87 27.45 35.97 25.26 C 36.00 27.20 36.04 29.14 36.04 31.08 C 43.39 35.77 51.29 39.54 58.45 44.53 C 63.50 47.85 61.69 54.66 62.01 59.74 C 57.90 57.59 53.13 57.56 49.02 59.74 C 49.00 57.77 48.98 55.80 48.99 53.83 C 42.28 49.51 35.15 45.89 28.35 41.71 C 26.36 40.41 24.10 38.95 23.49 36.48 C 22.68 32.81 23.02 29.00 22.98 25.26 Z" />
<path fill="#000000" opacity="0.35" d=" M 15.67 52.94 C 17.44 48.74 19.36 44.59 22.00 40.86 C 24.63 44.60 26.57 48.74 28.34 52.94 C 24.11 53.04 19.89 53.04 15.67 52.94 Z" />
<path fill="#000000" opacity="0.35" d=" M 29.84 65.49 C 32.50 61.43 34.14 56.80 37.00 52.86 C 40.33 57.85 42.85 63.34 45.32 68.79 C 36.44 69.21 27.55 68.96 18.67 68.95 C 20.44 64.75 22.36 60.59 25.00 56.85 C 26.87 59.58 28.45 62.49 29.84 65.49 Z" />
<path fill="#000000" opacity="0.35" d=" M 49.48 62.50 C 51.67 57.89 59.35 57.90 61.53 62.52 C 62.19 64.60 61.96 66.83 62.06 68.98 C 57.69 69.02 53.31 69.02 48.94 68.98 C 49.05 66.82 48.80 64.58 49.48 62.50 Z" />
</svg>
