<?xml version="1.0" encoding="UTF-8" ?>
<!DOCTYPE svg PUBLIC "-//W3C//DTD SVG 1.1//EN" "http://www.w3.org/Graphics/SVG/1.1/DTD/svg11.dtd">
<svg width="85pt" height="85pt" viewBox="0 0 85 85" version="1.1" xmlns="http://www.w3.org/2000/svg">
<path fill="#000000" opacity="0.35" d=" M 22.90 16.02 C 27.30 15.98 31.70 15.98 36.10 16.02 C 35.96 18.19 36.15 20.45 35.49 22.55 C 33.35 27.14 25.54 27.11 23.48 22.47 C 22.86 20.38 23.02 18.17 22.90 16.02 M 25.49 16.44 C 26.13 17.88 26.82 19.30 27.53 20.70 C 26.86 21.96 26.18 23.21 25.50 24.46 C 26.84 23.89 28.18 23.31 29.52 22.73 C 30.84 23.31 32.17 23.89 33.50 24.47 C 32.82 23.21 32.14 21.96 31.47 20.71 C 32.20 19.31 32.87 17.89 33.45 16.43 C 32.11 17.18 30.80 17.97 29.49 18.76 C 28.17 17.97 26.83 17.20 25.49 16.44 Z" />
<path fill="#000000" opacity="0.35" d=" M 39.66 27.94 C 41.42 23.73 43.41 19.59 46.00 15.83 C 48.59 19.60 50.59 23.73 52.34 27.94 C 48.12 28.03 43.89 28.03 39.66 27.94 Z" />
<path fill="#000000" opacity="0.35" d=" M 52.68 36.78 C 55.18 31.33 57.69 25.84 61.00 20.81 C 64.30 25.85 66.86 31.33 69.33 36.81 C 63.78 37.10 58.22 37.13 52.68 36.78 Z" />
<path fill="#000000" opacity="0.20" d=" M 22.97 25.29 C 27.12 27.37 31.84 27.40 35.98 25.29 C 36.00 27.22 36.02 29.15 36.05 31.09 C 42.80 35.34 49.93 38.96 56.65 43.27 C 58.61 44.62 60.92 46.07 61.51 48.55 C 62.32 52.21 61.98 56.00 62.03 59.72 C 57.91 57.65 53.21 57.57 49.09 59.70 C 48.98 57.66 49.17 55.55 48.55 53.58 C 41.46 48.85 33.61 45.30 26.57 40.49 C 21.53 37.17 23.30 30.37 22.97 25.29 Z" />
<path fill="#000000" opacity="0.35" d=" M 15.66 52.94 C 17.42 48.73 19.41 44.60 22.00 40.82 C 24.58 44.60 26.58 48.73 28.34 52.94 C 24.12 53.03 19.89 53.03 15.66 52.94 Z" />
<path fill="#000000" opacity="0.35" d=" M 29.82 65.37 C 32.53 61.36 34.23 56.78 37.00 52.81 C 40.30 57.85 42.84 63.33 45.34 68.80 C 36.45 69.19 27.55 68.97 18.66 68.95 C 20.43 64.73 22.41 60.59 25.01 56.82 C 26.81 59.55 28.38 62.43 29.82 65.37 Z" />
<path fill="#000000" opacity="0.35" d=" M 49.50 62.47 C 51.61 57.89 59.38 57.88 61.49 62.46 C 62.15 64.56 61.97 66.81 62.10 68.98 C 57.70 69.02 53.30 69.02 48.90 68.98 C 49.03 66.81 48.85 64.57 49.50 62.47 M 51.49 60.54 C 52.17 61.79 52.86 63.04 53.53 64.29 C 52.80 65.70 52.14 67.13 51.56 68.60 C 52.87 67.83 54.16 67.03 55.44 66.23 C 56.79 67.02 58.15 67.81 59.51 68.58 C 58.85 67.14 58.17 65.71 57.48 64.28 C 58.15 63.03 58.83 61.78 59.51 60.52 C 58.18 61.10 56.85 61.68 55.52 62.27 C 54.18 61.69 52.83 61.11 51.49 60.54 Z" />
</svg>
