<?xml version="1.0" encoding="UTF-8" ?>
<!DOCTYPE svg PUBLIC "-//W3C//DTD SVG 1.1//EN" "http://www.w3.org/Graphics/SVG/1.1/DTD/svg11.dtd">
<svg width="85pt" height="85pt" viewBox="0 0 85 85" version="1.1" xmlns="http://www.w3.org/2000/svg">
<path fill="#000000" opacity="0.35" d=" M 27.66 28.94 C 29.44 24.74 31.38 20.59 34.00 16.84 C 36.61 20.59 38.57 24.73 40.34 28.94 C 36.11 29.04 31.89 29.04 27.66 28.94 Z" />
<path fill="#000000" opacity="0.20" d=" M 44.54 26.53 C 47.87 21.52 54.65 23.30 59.72 22.98 C 57.61 27.11 57.56 31.86 59.74 35.97 C 57.80 35.99 55.87 36.03 53.93 36.05 C 49.21 43.40 45.45 51.34 40.43 58.50 C 37.10 63.49 30.33 61.69 25.27 62.02 C 27.38 57.91 27.45 53.17 25.28 49.08 C 27.32 49.01 29.41 49.13 31.41 48.61 C 36.10 41.46 39.72 33.62 44.54 26.53 Z" />
<path fill="#000000" opacity="0.35" d=" M 62.49 23.48 C 64.57 22.82 66.82 23.04 68.98 22.92 C 69.02 27.31 69.02 31.69 68.98 36.07 C 66.80 35.95 64.54 36.19 62.44 35.50 C 57.90 33.26 57.92 25.68 62.49 23.48 Z" />
<path fill="#000000" opacity="0.35" d=" M 13.70 43.79 C 16.17 38.33 18.67 32.84 22.01 27.84 C 25.32 32.85 27.84 38.34 30.33 43.79 C 24.79 44.11 19.24 44.12 13.70 43.79 Z" />
<path fill="#000000" opacity="0.35" d=" M 55.66 50.94 C 57.44 46.74 59.38 42.59 62.00 38.84 C 64.61 42.60 66.58 46.73 68.34 50.94 C 64.11 51.04 59.89 51.04 55.66 50.94 Z" />
<path fill="#000000" opacity="0.35" d=" M 16.02 48.92 C 18.20 49.05 20.46 48.81 22.56 49.50 C 27.11 51.74 27.08 59.34 22.50 61.52 C 20.41 62.18 18.18 61.95 16.02 62.07 C 15.98 57.69 15.98 53.31 16.02 48.92 Z" />
<path fill="#000000" opacity="0.35" d=" M 51.83 65.45 C 54.51 61.41 56.17 56.79 59.00 52.84 C 62.32 57.85 64.85 63.34 67.32 68.80 C 58.44 69.20 49.55 68.97 40.66 68.95 C 42.43 64.74 44.38 60.59 47.01 56.84 C 48.84 59.58 50.44 62.46 51.83 65.45 Z" />
</svg>
