<?xml version="1.0" encoding="UTF-8" ?>
<!DOCTYPE svg PUBLIC "-//W3C//DTD SVG 1.1//EN" "http://www.w3.org/Graphics/SVG/1.1/DTD/svg11.dtd">
<svg width="85pt" height="85pt" viewBox="0 0 85 85" version="1.1" xmlns="http://www.w3.org/2000/svg">
<path fill="#000000" opacity="0.35" d=" M 27.66 28.94 C 29.42 24.72 31.43 20.60 34.00 16.81 C 36.56 20.61 38.59 24.72 40.34 28.94 C 36.12 29.03 31.89 29.03 27.66 28.94 Z" />
<path fill="#000000" opacity="0.20" d=" M 48.55 23.49 C 52.20 22.68 55.97 23.01 59.68 22.97 C 57.66 27.14 57.63 31.83 59.67 35.99 C 57.75 36.01 55.82 36.03 53.90 36.05 C 49.66 42.82 46.03 49.95 41.72 56.67 C 40.37 58.61 38.93 60.90 36.48 61.50 C 32.82 62.31 29.04 61.99 25.33 62.03 C 27.34 57.86 27.37 53.16 25.32 48.99 C 27.28 49.00 29.24 48.99 31.20 48.99 C 35.47 42.25 39.12 35.13 43.30 28.33 C 44.61 26.35 46.08 24.08 48.55 23.49 Z" />
<path fill="#000000" opacity="0.35" d=" M 60.72 24.74 C 62.82 22.45 66.23 23.18 69.00 22.89 C 68.99 27.29 68.97 31.70 68.99 36.10 C 65.70 36.05 61.81 36.29 59.72 33.20 C 58.77 30.45 58.64 27.02 60.72 24.74 M 60.44 25.47 C 61.12 26.74 61.81 28.00 62.50 29.26 C 62.01 30.42 61.09 31.48 61.20 32.80 C 62.49 32.84 63.45 31.80 64.55 31.29 C 65.89 32.07 67.21 32.87 68.54 33.66 C 67.86 32.21 67.17 30.76 66.48 29.32 C 67.15 28.07 67.82 26.83 68.49 25.58 C 67.15 26.13 65.81 26.69 64.47 27.26 C 63.12 26.66 61.78 26.06 60.44 25.47 Z" />
<path fill="#000000" opacity="0.35" d=" M 13.65 43.77 C 16.21 38.33 18.70 32.83 22.00 27.80 C 25.29 32.85 27.83 38.33 30.36 43.79 C 24.79 44.12 19.21 44.13 13.65 43.77 Z" />
<path fill="#000000" opacity="0.35" d=" M 55.66 50.94 C 57.41 46.71 59.47 42.61 61.99 38.78 C 64.54 42.59 66.59 46.71 68.34 50.94 C 64.12 51.03 59.89 51.03 55.66 50.94 Z" />
<path fill="#000000" opacity="0.35" d=" M 16.00 48.89 C 18.77 49.17 22.17 48.47 24.29 50.73 C 26.36 53.01 26.26 56.46 25.24 59.20 C 23.21 62.34 19.27 62.02 16.01 62.10 C 16.02 57.70 16.01 53.30 16.00 48.89 M 16.50 51.55 C 17.17 52.80 17.84 54.05 18.52 55.29 C 17.82 56.73 17.13 58.18 16.45 59.63 C 17.80 58.83 19.16 58.03 20.51 57.23 C 21.57 57.85 22.51 58.94 23.84 58.84 C 24.01 57.48 23.01 56.43 22.45 55.30 C 23.18 54.01 23.92 52.72 24.65 51.43 C 23.25 52.04 21.86 52.66 20.46 53.28 C 19.15 52.70 17.83 52.12 16.50 51.55 Z" />
<path fill="#000000" opacity="0.35" d=" M 51.89 65.51 C 54.38 61.34 56.29 56.84 59.00 52.79 C 62.29 57.84 64.82 63.33 67.37 68.79 C 58.47 69.21 49.56 68.96 40.66 68.95 C 42.42 64.72 44.43 60.59 47.01 56.80 C 48.83 59.59 50.42 62.52 51.89 65.51 Z" />
</svg>
