<?xml version="1.0" encoding="UTF-8" ?>
<!DOCTYPE svg PUBLIC "-//W3C//DTD SVG 1.1//EN" "http://www.w3.org/Graphics/SVG/1.1/DTD/svg11.dtd">
<svg width="20pt" height="20pt" viewBox="0 0 20 20" version="1.1" xmlns="http://www.w3.org/2000/svg">
<g id="#94949494">
</g>
<g id="#c80103ff">
<path fill="#c80103" opacity="1.00" d=" M 7.39 2.44 C 12.00 0.70 17.56 4.18 17.92 9.09 C 18.61 13.63 14.60 18.16 10.00 17.96 C 5.74 18.14 1.89 14.25 2.02 10.00 C 1.93 6.66 4.27 3.51 7.39 2.44 M 6.56 12.95 C 7.34 16.39 12.68 16.39 13.43 12.95 C 13.69 9.68 11.15 7.10 10.00 4.22 C 8.84 7.10 6.31 9.69 6.56 12.95 Z" />
</g>
<g id="#fffefeff">
<path fill="#fffefe" opacity="1.00" d=" M 6.56 12.95 C 6.31 9.69 8.84 7.10 10.00 4.22 C 11.15 7.10 13.69 9.68 13.43 12.95 C 12.68 16.39 7.34 16.39 6.56 12.95 Z" />
</g>
</svg>
