<?xml version="1.0" encoding="UTF-8" ?>
<!DOCTYPE svg PUBLIC "-//W3C//DTD SVG 1.1//EN" "http://www.w3.org/Graphics/SVG/1.1/DTD/svg11.dtd">
<svg width="20pt" height="20pt" viewBox="0 0 20 20" version="1.1" xmlns="http://www.w3.org/2000/svg">
<g id="#8f8d8c93">
</g>
<g id="#8c6239ff">
<path fill="#8c6239" opacity="1.00" d=" M 7.28 2.50 C 11.86 0.69 17.47 4.10 17.87 8.99 C 18.76 13.89 13.96 18.72 9.05 17.88 C 5.54 17.59 2.41 14.47 2.12 10.96 C 1.51 7.36 3.95 3.72 7.28 2.50 M 8.19 14.61 C 10.99 15.77 14.64 13.93 14.83 10.78 C 13.47 12.15 11.44 12.11 9.77 11.41 C 7.78 10.07 7.55 6.97 9.17 5.23 C 4.27 5.40 3.63 13.34 8.19 14.61 M 9.17 5.23 C 9.87 5.31 9.87 5.31 9.17 5.23 M 14.83 10.78 C 14.46 10.13 14.46 10.13 14.83 10.78 Z" />
</g>
<g id="#ffffffff">
<path fill="#ffffff" opacity="1.00" d=" M 8.19 14.61 C 3.63 13.34 4.27 5.40 9.17 5.23 C 7.55 6.97 7.78 10.07 9.77 11.41 C 11.44 12.11 13.47 12.15 14.83 10.78 C 14.64 13.93 10.99 15.77 8.19 14.61 Z" />
<path fill="#ffffff" opacity="1.00" d=" M 9.17 5.23 C 9.87 5.31 9.87 5.31 9.17 5.23 Z" />
<path fill="#ffffff" opacity="1.00" d=" M 14.83 10.78 C 14.46 10.13 14.46 10.13 14.83 10.78 Z" />
</g>
</svg>
