<?xml version="1.0" encoding="UTF-8" ?>
<!DOCTYPE svg PUBLIC "-//W3C//DTD SVG 1.1//EN" "http://www.w3.org/Graphics/SVG/1.1/DTD/svg11.dtd">
<svg width="85pt" height="85pt" viewBox="0 0 85 85" version="1.1" xmlns="http://www.w3.org/2000/svg">
<path fill="#000000" opacity="0.35" d=" M 21.14 17.66 C 22.65 17.43 24.15 17.19 25.66 16.96 C 25.66 18.46 25.65 19.97 25.65 21.48 C 26.14 21.60 27.14 21.85 27.63 21.97 C 27.95 20.32 28.26 18.68 28.58 17.03 C 29.66 17.26 30.75 17.49 31.84 17.72 C 30.44 23.18 29.01 28.63 28.06 34.18 C 28.59 34.02 29.66 33.69 30.19 33.52 C 31.45 28.39 32.72 23.26 33.99 18.13 C 36.01 19.45 38.03 20.77 40.05 22.10 C 38.47 24.13 36.93 26.19 35.53 28.35 C 37.88 27.12 40.11 25.66 42.26 24.12 C 43.24 25.81 44.22 27.50 45.20 29.19 C 40.94 30.66 36.67 32.25 32.93 34.82 C 37.60 34.70 41.97 33.00 46.20 31.19 C 46.51 33.35 46.81 35.52 47.11 37.68 C 44.72 37.36 42.33 37.03 39.94 36.70 C 40.07 37.34 40.33 38.63 40.47 39.27 C 42.62 39.41 44.76 39.55 46.91 39.69 C 46.40 41.82 45.88 43.94 45.35 46.06 C 39.74 43.46 34.59 39.82 28.63 37.99 C 32.06 43.32 38.86 44.54 43.92 47.81 C 43.29 48.98 42.65 50.15 42.02 51.32 C 40.10 50.18 38.17 49.05 36.23 47.93 C 37.33 49.83 38.43 51.72 39.52 53.62 C 37.70 54.54 35.87 55.45 34.04 56.36 C 32.47 51.66 31.02 46.88 28.56 42.54 C 27.34 47.75 30.83 52.43 32.02 57.33 C 30.60 57.55 29.17 57.77 27.75 57.99 C 27.51 55.70 27.25 53.41 26.86 51.14 C 25.94 53.32 25.43 55.64 25.05 57.96 C 23.69 57.76 22.34 57.55 20.99 57.35 C 22.11 51.21 23.90 45.21 24.92 39.06 C 24.40 39.17 23.37 39.41 22.85 39.53 C 21.46 45.10 20.08 50.66 18.88 56.27 C 16.99 55.34 15.10 54.40 13.22 53.47 C 15.09 51.22 16.65 48.73 17.74 46.00 C 15.54 47.67 13.46 49.48 11.45 51.37 C 10.36 49.93 9.29 48.48 8.22 47.04 C 11.26 45.74 14.29 44.43 17.34 43.15 C 17.58 42.55 18.05 41.34 18.29 40.74 C 14.56 41.94 10.93 43.40 7.37 45.00 C 6.84 42.78 6.32 40.55 5.81 38.32 C 10.57 38.40 15.34 38.19 20.07 37.60 C 19.84 37.12 19.37 36.16 19.14 35.68 C 14.74 35.65 10.34 35.64 5.94 35.61 C 6.45 33.60 6.96 31.59 7.47 29.59 C 9.52 30.25 11.56 30.92 13.61 31.57 C 12.04 29.99 10.45 28.43 8.86 26.87 C 10.01 25.47 11.16 24.08 12.32 22.68 C 14.14 25.77 15.03 30.10 18.85 31.36 C 17.48 27.81 15.78 24.39 14.10 20.97 C 15.76 20.10 17.41 19.23 19.06 18.36 C 20.21 23.79 21.45 29.21 22.73 34.61 C 23.25 34.68 24.28 34.82 24.79 34.90 C 23.79 29.11 22.40 23.40 21.14 17.66 Z" />
<path fill="#000000" opacity="0.35" d=" M 56.89 30.82 C 56.18 26.96 56.25 22.99 57.09 19.15 C 57.81 23.01 57.78 26.99 56.89 30.82 Z" />
<path fill="#000000" opacity="0.35" d=" M 82.47 21.29 C 83.10 20.64 84.37 19.33 85.00 18.68 L 85.00 26.52 C 84.20 24.76 83.33 23.02 82.47 21.29 Z" />
<path fill="#000000" opacity="0.35" d=" M 73.87 25.76 C 75.83 24.30 77.79 22.85 79.76 21.40 C 81.58 24.52 83.46 27.62 85.00 30.90 L 85.00 40.64 C 79.15 39.98 73.28 39.48 67.39 39.19 C 67.56 37.86 67.74 36.53 67.91 35.20 C 70.99 35.71 74.06 36.20 77.15 36.60 C 74.56 35.02 71.92 33.52 69.28 32.05 C 70.33 30.48 71.38 28.92 72.43 27.36 C 76.16 31.39 80.05 35.40 84.99 37.95 C 81.92 33.34 77.87 29.55 73.87 25.76 Z" />
<path fill="#000000" opacity="0.35" d=" M 60.83 22.12 C 61.57 24.98 61.69 27.96 61.18 30.87 C 60.41 28.02 60.31 25.03 60.83 22.12 Z" />
<path fill="#000000" opacity="0.35" d=" M 52.86 24.24 C 53.22 26.15 53.55 28.06 53.89 29.97 C 53.48 29.95 52.67 29.93 52.26 29.91 C 52.46 28.02 52.66 26.13 52.86 24.24 Z" />
<path fill="#000000" opacity="0.35" d=" M 66.97 41.26 C 72.99 41.67 78.99 42.24 85.00 42.73 L 85.00 53.67 C 83.72 57.16 82.10 60.51 80.50 63.87 C 79.41 63.22 78.32 62.58 77.24 61.94 C 78.58 59.48 79.90 57.01 81.18 54.52 C 79.02 56.29 76.89 58.10 74.77 59.92 C 73.56 58.62 72.36 57.31 71.15 56.01 C 75.30 53.47 79.45 50.94 83.61 48.41 C 83.69 47.79 83.86 46.55 83.95 45.92 C 79.20 48.53 74.54 51.30 69.92 54.12 C 69.21 52.35 68.50 50.58 67.79 48.81 C 71.30 47.97 74.80 47.09 78.24 45.98 C 74.56 45.67 70.86 45.59 67.17 45.61 C 67.10 44.16 67.04 42.71 66.97 41.26 Z" />
<path fill="#000000" opacity="0.35" d=" M 43.90 68.85 C 43.19 64.98 43.22 61.00 44.11 57.17 C 44.81 61.04 44.76 65.01 43.90 68.85 Z" />
<path fill="#000000" opacity="0.35" d=" M 48.19 68.88 C 47.26 66.02 47.22 62.98 48.22 60.13 C 48.51 63.04 48.49 65.97 48.19 68.88 Z" />
<path fill="#000000" opacity="0.35" d=" M 85.00 65.31 C 82.17 65.04 82.55 61.79 85.00 61.21 L 85.00 65.31 Z" />
<path fill="#000000" opacity="0.35" d=" M 39.82 62.10 C 40.52 64.32 40.58 66.68 39.79 68.89 C 39.66 66.63 39.67 64.36 39.82 62.10 Z" />
</svg>
