<?xml version="1.0" encoding="UTF-8" ?>
<!DOCTYPE svg PUBLIC "-//W3C//DTD SVG 1.1//EN" "http://www.w3.org/Graphics/SVG/1.1/DTD/svg11.dtd">
<svg width="85pt" height="85pt" viewBox="0 0 85 85" version="1.1" xmlns="http://www.w3.org/2000/svg">
<path fill="#000000" opacity="0.21" d=" M 39.37 20.40 C 44.32 19.80 49.49 20.61 53.79 23.20 C 60.70 27.16 65.17 35.07 64.76 43.06 C 64.79 49.97 61.13 56.65 55.55 60.64 C 49.40 65.20 40.84 66.00 33.83 63.10 C 25.53 59.74 19.77 50.96 20.24 41.98 C 20.10 31.36 28.86 21.61 39.37 20.40 Z" />
<path fill="#000000" opacity="0.21" d=" M 71.09 19.99 C 71.55 19.99 72.46 20.00 72.91 20.01 C 72.98 23.26 73.23 26.54 72.84 29.78 C 72.41 29.89 71.55 30.12 71.12 30.23 C 70.94 26.82 70.94 23.40 71.09 19.99 Z" />
<path fill="#000000" opacity="0.21" d=" M 75.04 23.00 C 75.52 22.99 76.47 22.99 76.95 22.99 C 77.00 25.32 77.01 27.64 76.97 29.97 C 76.49 29.98 75.53 30.01 75.05 30.03 C 75.00 27.68 75.00 25.34 75.04 23.00 Z" />
<path fill="#000000" opacity="0.21" d=" M 0.00 25.13 C 2.04 24.46 4.60 25.80 4.80 28.00 C 3.46 30.22 1.62 32.06 0.00 34.06 L 0.00 25.13 Z" />
<path fill="#000000" opacity="0.21" d=" M 67.00 25.05 C 67.49 25.03 68.48 24.99 68.97 24.98 C 68.97 26.65 68.97 28.33 68.97 30.01 C 68.48 30.00 67.51 29.99 67.03 29.99 C 67.02 28.34 67.01 26.69 67.00 25.05 Z" />
<path fill="#000000" opacity="0.21" d=" M 0.00 36.33 C 1.92 33.66 4.29 31.36 6.69 29.14 C 7.58 30.76 8.46 32.38 9.33 34.01 C 7.74 35.27 6.16 36.54 4.58 37.82 C 6.49 37.34 8.40 36.87 10.31 36.38 C 10.64 38.56 10.97 40.73 11.29 42.91 C 7.66 42.64 4.03 42.43 0.40 42.49 C 3.92 43.71 7.61 44.34 11.29 44.88 C 10.90 47.12 10.48 49.36 10.02 51.59 C 6.57 50.48 3.21 49.07 0.00 47.39 L 0.00 36.33 Z" />
<path fill="#000000" opacity="0.21" d=" M 77.18 39.95 C 78.91 38.24 80.83 36.72 83.10 35.81 C 83.75 37.20 84.42 38.58 85.00 40.00 L 85.00 49.01 C 81.42 48.38 77.82 47.87 74.26 47.17 C 74.73 45.44 75.21 43.71 75.71 42.00 C 78.32 42.77 80.89 43.68 83.48 44.53 C 81.55 42.77 79.41 41.29 77.18 39.95 Z" />
<path fill="#000000" opacity="0.21" d=" M 73.90 48.69 C 77.62 49.15 81.32 49.77 85.00 50.52 L 85.00 57.86 C 83.19 59.61 81.59 62.31 78.98 62.69 C 77.45 61.23 76.32 59.42 75.11 57.70 C 78.26 56.77 81.40 55.80 84.47 54.65 C 81.15 54.75 77.85 55.15 74.60 55.84 C 74.04 53.50 73.88 51.09 73.90 48.69 Z" />
<path fill="#000000" opacity="0.21" d=" M 0.00 49.04 C 3.11 50.40 6.22 51.79 9.14 53.52 C 8.43 54.80 7.69 56.06 6.92 57.31 C 4.57 55.95 2.22 54.59 0.00 53.03 L 0.00 49.04 Z" />
<path fill="#000000" opacity="0.21" d=" M 0.00 53.84 C 1.84 55.62 3.78 57.30 5.66 59.04 C 3.88 60.66 1.95 62.08 0.00 63.49 L 0.00 53.84 Z" />
<path fill="#000000" opacity="0.21" d=" M 16.08 57.02 C 16.54 57.01 17.45 56.98 17.90 56.97 C 18.05 60.31 18.06 63.66 17.90 67.00 C 17.45 67.01 16.55 67.01 16.10 67.01 C 15.95 63.68 15.94 60.35 16.08 57.02 Z" />
<path fill="#000000" opacity="0.21" d=" M 20.05 59.99 C 20.52 59.99 21.47 60.00 21.94 60.01 C 21.45 62.34 23.61 67.07 20.07 67.24 C 20.00 64.82 20.00 62.40 20.05 59.99 Z" />
<path fill="#000000" opacity="0.21" d=" M 81.04 64.04 C 82.39 62.69 83.73 61.33 85.00 59.89 L 85.00 66.74 C 83.71 65.80 82.37 64.92 81.04 64.04 Z" />
<path fill="#000000" opacity="0.21" d=" M 12.05 62.00 C 12.52 62.00 13.48 62.00 13.96 62.00 C 13.97 63.65 13.99 65.29 14.01 66.94 C 13.52 66.96 12.53 67.01 12.04 67.03 C 12.04 65.35 12.05 63.67 12.05 62.00 Z" />
</svg>
