<?xml version="1.0" encoding="UTF-8" ?>
<!DOCTYPE svg PUBLIC "-//W3C//DTD SVG 1.1//EN" "http://www.w3.org/Graphics/SVG/1.1/DTD/svg11.dtd">
<svg width="85pt" height="85pt" viewBox="0 0 85 85" version="1.1" xmlns="http://www.w3.org/2000/svg">
<path fill="#000000" opacity="0.35" d=" M 45.41 19.80 C 48.17 19.46 50.93 19.15 53.70 18.85 C 53.54 21.39 53.39 23.92 53.24 26.46 C 53.73 26.12 54.71 25.44 55.19 25.10 C 55.44 23.34 55.68 21.59 55.93 19.83 C 57.81 20.54 59.70 21.26 61.58 21.97 C 58.44 25.92 55.09 29.75 52.75 34.25 C 57.49 32.04 59.99 27.23 63.45 23.57 C 64.63 25.58 65.80 27.59 66.96 29.62 C 64.81 30.78 62.68 31.98 60.62 33.29 C 63.02 33.08 65.42 32.81 67.80 32.48 C 67.84 34.31 67.88 36.14 67.93 37.97 C 64.43 36.96 60.77 35.72 57.11 36.66 C 60.30 38.14 63.66 39.20 67.05 40.17 C 66.52 41.66 65.99 43.14 65.46 44.63 C 63.71 43.82 61.95 43.03 60.20 42.24 C 61.28 43.82 62.36 45.39 63.44 46.97 C 62.23 47.94 61.03 48.91 59.83 49.88 C 58.23 46.46 56.67 43.02 55.17 39.56 C 54.17 39.20 53.18 38.85 52.19 38.49 C 51.18 36.02 50.15 33.57 49.12 31.11 C 49.66 30.79 50.76 30.14 51.30 29.82 C 49.40 26.44 47.43 23.10 45.41 19.80 Z" />
<path fill="#000000" opacity="0.35" d=" M 40.82 22.98 C 41.46 22.47 42.74 21.46 43.38 20.95 C 45.28 23.91 47.10 26.91 48.86 29.95 C 46.15 27.67 43.47 25.33 40.82 22.98 Z" />
<path fill="#000000" opacity="0.35" d=" M 26.21 22.93 C 28.44 23.19 30.67 23.45 32.90 23.72 C 32.34 26.33 31.79 28.94 31.47 31.59 C 33.46 29.87 34.50 27.42 35.34 25.00 C 36.50 25.49 37.67 25.98 38.83 26.47 C 35.22 32.86 30.82 38.90 28.39 45.89 C 34.39 41.30 36.41 33.59 40.73 27.66 C 42.19 29.12 43.66 30.58 45.12 32.05 C 42.81 34.29 40.53 36.59 38.58 39.16 C 41.58 38.20 44.18 36.38 46.55 34.34 C 47.31 35.76 48.08 37.19 48.85 38.61 C 43.87 41.12 37.79 41.98 34.05 46.47 C 39.36 45.23 44.32 42.93 49.38 40.96 C 49.59 42.43 49.80 43.90 50.01 45.37 C 48.24 45.61 46.48 45.86 44.72 46.14 C 46.36 46.87 48.02 47.58 49.68 48.27 C 49.71 48.84 49.77 49.98 49.81 50.55 C 42.58 49.96 35.39 48.81 28.13 48.77 C 29.90 50.43 32.27 51.23 34.66 51.38 C 39.50 51.79 44.34 52.18 49.16 52.69 C 48.47 54.54 47.77 56.38 47.07 58.23 C 44.00 57.10 40.86 56.21 37.64 55.64 C 40.02 57.45 42.57 59.00 45.19 60.44 C 44.21 61.61 43.23 62.79 42.25 63.96 C 38.07 60.26 34.03 56.25 28.95 53.77 C 31.67 58.73 36.66 61.66 40.50 65.62 C 39.00 66.40 37.50 67.18 36.01 67.96 C 34.72 66.27 33.43 64.58 32.12 62.91 C 32.37 65.02 32.63 67.13 32.90 69.24 C 31.02 69.51 29.15 69.78 27.27 70.05 C 27.69 66.36 28.10 62.66 28.18 58.95 C 25.33 61.90 25.37 66.09 25.11 69.90 C 23.00 69.59 20.90 69.28 18.79 68.96 C 21.00 62.15 25.26 56.03 26.01 48.78 C 21.46 54.45 19.79 61.68 16.40 67.99 C 15.34 67.19 14.28 66.38 13.22 65.58 C 14.69 63.31 16.06 60.97 17.21 58.53 C 14.96 60.19 12.86 62.06 10.81 63.98 C 9.59 62.65 8.37 61.33 7.15 60.00 C 11.31 57.45 15.48 54.91 19.68 52.41 C 19.71 51.80 19.77 50.56 19.80 49.95 C 15.08 52.58 10.49 55.42 5.80 58.10 C 5.11 56.23 4.43 54.35 3.76 52.47 C 7.12 51.99 10.48 51.51 13.77 50.72 C 10.47 49.04 6.73 49.52 3.19 49.75 C 3.11 48.26 3.04 46.76 2.97 45.27 C 10.29 45.70 17.56 46.72 24.91 46.70 C 24.75 46.22 24.43 45.26 24.28 44.77 C 17.25 44.32 10.25 43.49 3.22 43.13 C 3.50 41.79 3.79 40.44 4.09 39.09 C 7.01 39.74 9.95 40.34 12.92 40.69 C 10.62 38.79 7.95 37.40 5.22 36.22 C 6.26 34.60 7.30 32.97 8.35 31.35 C 12.35 35.08 15.71 39.79 21.01 41.80 C 17.95 37.22 13.76 33.60 9.86 29.77 C 11.82 28.30 13.79 26.84 15.77 25.40 C 19.28 31.22 21.88 37.69 26.65 42.66 C 25.50 35.87 20.73 30.58 17.85 24.51 C 19.94 24.05 22.04 23.59 24.14 23.15 C 25.49 28.19 26.88 33.29 29.51 37.83 C 29.74 32.64 27.90 27.74 26.21 22.93 Z" />
<path fill="#000000" opacity="0.35" d=" M 53.28 40.27 C 54.75 43.85 56.24 47.43 57.71 51.01 C 56.03 51.35 54.35 51.68 52.68 52.01 C 52.89 48.10 53.08 44.18 53.28 40.27 Z" />
<path fill="#000000" opacity="0.35" d=" M 58.35 56.99 C 58.67 57.00 59.32 57.02 59.64 57.03 C 59.63 60.65 59.53 64.28 59.12 67.89 C 58.43 64.30 58.30 60.64 58.35 56.99 Z" />
<path fill="#000000" opacity="0.35" d=" M 62.18 59.98 C 62.57 60.00 63.36 60.03 63.75 60.05 C 63.55 62.68 63.33 65.31 63.06 67.94 C 62.68 65.30 62.46 62.64 62.18 59.98 Z" />
<path fill="#000000" opacity="0.35" d=" M 54.75 68.02 C 54.64 65.67 54.71 63.29 55.26 60.99 C 55.32 63.34 55.32 65.72 54.75 68.02 Z" />
</svg>
