<?xml version="1.0" encoding="UTF-8" ?>
<!DOCTYPE svg PUBLIC "-//W3C//DTD SVG 1.1//EN" "http://www.w3.org/Graphics/SVG/1.1/DTD/svg11.dtd">
<svg width="85pt" height="85pt" viewBox="0 0 85 85" version="1.1" xmlns="http://www.w3.org/2000/svg">
<path fill="#000000" opacity="0.35" d=" M 34.85 16.20 C 35.90 20.00 35.93 23.99 34.85 27.79 C 34.30 23.95 34.30 20.04 34.85 16.20 Z" />
<path fill="#000000" opacity="0.35" d=" M 59.54 18.62 C 61.65 18.37 63.77 18.13 65.88 17.89 C 65.65 23.40 62.69 29.10 64.87 34.48 C 66.72 29.19 67.18 23.56 68.42 18.12 C 69.88 18.89 71.33 19.67 72.78 20.44 C 71.78 22.78 70.79 25.12 69.81 27.46 C 70.44 27.24 71.70 26.80 72.33 26.57 C 73.11 24.95 73.88 23.33 74.66 21.71 C 76.19 23.19 77.70 24.69 79.21 26.21 C 75.40 28.55 71.55 30.89 68.36 34.06 C 72.82 33.40 76.52 30.78 80.20 28.38 C 80.53 31.16 80.84 33.94 81.13 36.73 C 78.71 36.55 76.30 36.37 73.89 36.20 C 74.12 36.70 74.58 37.71 74.81 38.21 C 76.59 38.45 78.38 38.69 80.16 38.93 C 79.47 40.82 78.75 42.69 78.02 44.56 C 73.93 41.63 70.47 37.46 65.40 36.21 C 68.43 40.18 72.51 43.10 76.39 46.16 C 74.35 47.50 72.30 48.84 70.26 50.18 C 69.31 47.90 68.27 45.62 66.69 43.69 C 66.89 46.06 67.19 48.43 67.54 50.79 C 65.74 50.83 63.94 50.88 62.14 50.92 C 62.99 47.44 63.65 43.90 63.76 40.30 C 61.78 43.25 60.64 46.62 59.84 50.05 C 58.36 49.53 56.87 49.01 55.38 48.49 C 56.19 46.76 57.00 45.02 57.80 43.28 C 56.20 44.31 54.60 45.36 53.00 46.41 C 52.04 45.21 51.09 44.02 50.13 42.83 C 54.31 40.94 58.58 39.15 62.39 36.55 C 57.58 36.05 53.49 38.93 49.33 40.84 C 48.83 39.12 48.35 37.40 47.88 35.67 C 50.17 35.45 52.45 35.21 54.74 34.92 C 52.49 34.08 50.19 33.40 47.88 32.75 C 48.78 30.24 49.69 27.73 50.65 25.25 C 53.57 28.26 56.47 31.42 60.30 33.29 C 58.38 29.30 55.12 26.24 52.07 23.12 C 53.84 21.96 55.60 20.81 57.38 19.67 C 57.90 22.16 58.41 24.66 58.90 27.15 C 59.42 27.41 60.45 27.92 60.96 28.18 C 60.57 24.98 60.09 21.80 59.54 18.62 Z" />
<path fill="#000000" opacity="0.35" d=" M 2.28 18.91 C 4.42 19.18 6.57 19.44 8.72 19.71 C 8.37 22.46 8.02 25.21 7.70 27.97 C 9.02 25.70 10.30 23.41 11.58 21.12 C 12.65 21.44 13.72 21.76 14.79 22.08 C 11.38 28.81 6.71 34.92 4.46 42.19 C 10.00 37.06 12.61 29.82 16.73 23.67 C 18.17 25.10 19.60 26.53 21.04 27.96 C 18.79 30.33 16.60 32.77 14.60 35.35 C 17.45 33.89 20.19 32.25 22.89 30.53 C 23.51 31.91 24.14 33.29 24.77 34.67 C 19.55 36.71 14.28 38.75 9.68 42.01 C 15.19 41.26 20.34 39.16 25.40 36.95 C 25.60 38.40 25.80 39.86 26.00 41.31 C 24.29 41.60 22.59 41.88 20.88 42.16 C 22.58 43.05 24.28 43.93 25.98 44.81 C 25.83 45.26 25.52 46.16 25.36 46.62 C 18.21 45.86 11.06 44.67 3.85 44.98 C 10.36 48.63 18.06 47.58 25.17 48.68 C 24.49 50.48 23.81 52.28 23.13 54.07 C 19.98 53.18 16.81 52.34 13.63 51.59 C 16.13 53.34 18.69 55.02 21.26 56.67 C 20.24 57.74 19.22 58.81 18.20 59.88 C 14.08 56.13 9.87 52.39 4.94 49.71 C 7.90 54.44 12.28 57.93 16.62 61.31 C 15.07 62.19 13.52 63.08 11.98 63.96 C 10.71 62.27 9.43 60.59 8.13 58.94 C 8.36 61.04 8.62 63.14 8.88 65.24 C 7.04 65.51 5.20 65.77 3.35 66.04 C 3.70 62.22 3.93 58.39 4.00 54.55 C 2.11 58.57 0.63 62.81 0.00 67.22 L 0.00 52.88 C 0.62 51.00 1.31 49.15 2.00 47.30 C 1.50 46.63 0.50 45.28 0.00 44.61 L 0.00 37.39 C 0.97 37.36 1.94 37.34 2.90 37.31 C 1.90 35.24 0.89 33.17 0.00 31.05 L 0.00 18.98 C 1.16 24.17 3.06 29.20 5.70 33.82 C 5.40 28.69 4.00 23.72 2.28 18.91 Z" />
<path fill="#000000" opacity="0.35" d=" M 39.21 27.85 C 38.17 25.03 38.22 21.98 39.25 19.16 C 39.51 22.05 39.51 24.96 39.21 27.85 Z" />
<path fill="#000000" opacity="0.35" d=" M 30.89 21.24 C 31.18 23.14 31.54 25.04 31.92 26.92 C 31.50 26.92 30.66 26.91 30.24 26.90 C 30.47 25.02 30.68 23.13 30.89 21.24 Z" />
<path fill="#000000" opacity="0.35" d=" M 39.44 39.89 C 41.47 39.57 43.50 39.25 45.53 38.94 C 46.15 41.10 46.77 43.26 47.39 45.42 C 48.40 46.25 49.40 47.07 50.41 47.90 C 49.19 50.00 48.00 52.13 46.96 54.32 C 48.88 53.00 50.71 51.54 52.52 50.05 C 53.95 51.13 55.37 52.22 56.78 53.32 C 58.52 53.47 60.26 53.62 61.99 53.77 C 61.94 55.13 61.89 56.49 61.84 57.86 C 58.39 57.01 54.89 56.34 51.34 56.21 C 54.24 58.25 57.63 59.35 61.05 60.14 C 60.54 61.63 60.02 63.12 59.50 64.61 C 57.77 63.81 56.05 63.01 54.32 62.21 C 55.31 63.81 56.32 65.41 57.32 67.02 C 56.15 67.98 54.98 68.94 53.82 69.90 C 51.82 65.74 50.59 60.95 46.90 57.87 C 47.86 62.49 49.87 66.77 51.71 71.09 C 49.98 71.40 48.26 71.72 46.54 72.03 C 46.52 70.08 46.51 68.13 46.50 66.17 C 46.03 66.28 45.11 66.48 44.65 66.59 C 44.51 68.45 44.38 70.31 44.25 72.17 C 41.50 71.29 38.77 70.38 36.06 69.42 C 38.89 66.64 41.68 63.82 44.33 60.87 C 43.80 60.72 42.73 60.42 42.20 60.27 C 39.54 62.84 36.86 65.40 34.11 67.88 C 32.95 66.14 31.79 64.39 30.64 62.64 C 33.15 62.11 35.65 61.59 38.16 61.09 C 38.44 60.58 39.00 59.56 39.28 59.05 C 36.04 59.43 32.82 59.90 29.61 60.44 C 29.36 58.33 29.13 56.22 28.89 54.11 C 34.35 54.89 39.77 55.98 45.29 56.20 C 40.99 52.14 34.57 53.34 29.30 51.65 C 29.84 50.23 30.39 48.82 30.94 47.40 C 33.65 48.46 36.46 49.30 39.38 49.52 C 37.24 47.88 35.00 46.39 32.72 44.96 C 34.25 43.61 35.77 42.26 37.30 40.91 C 39.59 44.68 41.92 48.49 45.06 51.63 C 44.40 47.22 41.82 43.53 39.44 39.89 Z" />
</svg>
