<?xml version="1.0" encoding="UTF-8" ?>
<!DOCTYPE svg PUBLIC "-//W3C//DTD SVG 1.1//EN" "http://www.w3.org/Graphics/SVG/1.1/DTD/svg11.dtd">
<svg width="85pt" height="85pt" viewBox="0 0 85 85" version="1.1" xmlns="http://www.w3.org/2000/svg">
<path fill="#000000" opacity="0.35" d=" M 38.89 25.78 C 38.19 21.96 38.16 18.02 39.13 14.24 C 39.84 18.06 39.79 22.00 38.89 25.78 Z" />
<path fill="#000000" opacity="0.35" d=" M 42.82 25.81 C 42.26 22.93 42.39 19.99 43.19 17.17 C 43.73 20.05 43.60 23.00 42.82 25.81 Z" />
<path fill="#000000" opacity="0.35" d=" M 34.67 25.89 C 34.50 23.62 34.58 21.31 35.26 19.12 C 35.49 21.39 35.50 23.73 34.67 25.89 Z" />
<path fill="#000000" opacity="0.35" d=" M 69.95 20.60 C 71.45 20.40 72.94 20.19 74.44 19.99 C 74.54 21.61 74.64 23.23 74.74 24.86 C 76.21 23.05 77.64 21.21 79.17 19.45 C 79.60 27.05 77.44 34.53 77.98 42.14 C 81.60 35.76 80.58 28.18 81.62 21.18 C 82.75 21.33 83.87 21.47 85.00 21.62 L 85.00 37.09 C 82.34 37.45 82.18 40.76 85.00 40.98 L 85.00 45.53 C 82.64 44.91 80.25 44.43 77.86 43.95 C 80.23 45.58 82.69 47.11 85.00 48.84 L 85.00 56.38 C 83.90 54.33 82.69 52.34 81.49 50.35 C 80.85 50.30 79.57 50.21 78.93 50.16 C 80.93 53.70 83.11 57.14 85.00 60.74 L 85.00 65.29 C 83.82 65.50 82.65 65.71 81.47 65.93 C 80.93 62.61 80.36 59.30 79.54 56.04 C 78.59 59.55 78.41 63.20 78.63 66.82 C 77.17 66.89 75.71 66.96 74.25 67.03 C 74.80 59.67 75.63 52.32 75.71 44.93 C 75.23 45.16 74.26 45.63 73.78 45.86 C 73.29 52.88 72.65 59.88 71.87 66.87 C 70.95 66.62 69.11 66.13 68.19 65.88 C 68.73 62.90 69.22 59.91 69.61 56.91 C 68.00 59.48 66.50 62.11 65.01 64.76 C 63.48 63.66 61.95 62.56 60.42 61.46 C 64.43 57.76 68.45 53.93 71.01 49.04 C 66.34 52.04 62.54 56.11 58.78 60.15 C 57.32 58.18 55.86 56.20 54.42 54.22 C 60.21 50.63 67.00 48.30 71.54 42.98 C 65.06 45.03 59.46 48.97 53.55 52.19 C 53.08 50.09 52.61 47.99 52.15 45.89 C 57.22 44.59 62.27 43.02 66.76 40.28 C 61.65 40.60 56.71 42.03 51.91 43.73 C 52.18 41.57 52.45 39.42 52.72 37.27 C 55.45 37.62 58.18 37.98 60.91 38.30 C 58.68 36.99 56.44 35.72 54.19 34.46 C 54.44 33.36 54.70 32.26 54.95 31.16 C 61.74 34.47 67.77 39.36 75.15 41.39 C 69.91 36.01 62.75 33.33 56.59 29.23 C 58.11 27.82 59.63 26.41 61.15 25.01 C 63.45 27.27 65.81 29.47 68.35 31.47 C 66.96 28.63 65.30 25.94 63.54 23.32 C 64.89 22.59 66.24 21.87 67.60 21.14 C 69.71 26.36 71.70 31.70 75.02 36.30 C 74.27 30.80 72.13 25.66 69.95 20.60 Z" />
<path fill="#000000" opacity="0.35" d=" M 16.95 28.28 C 19.40 27.78 21.86 27.35 24.31 26.87 C 23.95 31.59 23.87 36.32 24.27 41.04 C 24.79 40.81 25.82 40.34 26.33 40.11 C 26.35 35.72 26.36 31.33 26.38 26.95 C 28.37 27.45 30.35 27.95 32.34 28.47 C 31.74 30.49 31.15 32.51 30.57 34.54 C 32.04 33.01 33.50 31.47 34.96 29.94 C 36.42 31.06 37.89 32.19 39.36 33.31 C 35.92 34.91 32.56 36.75 29.79 39.37 C 33.82 38.76 37.52 37.02 41.09 35.11 C 41.92 36.76 42.76 38.41 43.59 40.05 C 38.21 41.23 32.85 42.45 27.47 43.65 C 27.40 44.20 27.25 45.28 27.17 45.83 C 32.93 44.77 38.62 43.37 44.35 42.16 C 44.58 43.61 44.80 45.07 45.03 46.52 C 43.09 46.70 41.14 46.89 39.21 47.12 C 40.85 48.50 42.85 49.29 44.87 49.91 C 44.68 50.89 44.50 51.86 44.31 52.83 C 38.63 51.52 33.04 49.59 27.17 49.29 C 31.60 53.52 38.33 53.03 43.82 54.96 C 42.70 56.89 41.63 58.87 40.27 60.65 C 37.84 59.70 35.78 58.04 33.58 56.70 C 34.91 58.96 36.38 61.14 37.92 63.27 C 36.19 64.24 34.46 65.20 32.74 66.17 C 31.13 62.01 30.26 57.24 26.71 54.20 C 27.37 58.74 29.12 63.00 30.83 67.23 C 28.65 67.50 26.48 67.77 24.30 68.04 C 24.66 65.48 24.98 62.91 25.24 60.33 C 21.97 61.48 22.64 65.14 22.14 67.85 C 20.08 67.40 18.02 66.94 15.96 66.48 C 18.39 60.72 22.37 55.65 23.89 49.51 C 18.80 53.34 17.33 59.94 14.01 65.11 C 12.89 64.28 11.78 63.44 10.67 62.61 C 11.86 60.83 13.04 59.04 14.19 57.23 C 12.25 58.32 10.32 59.42 8.38 60.49 C 7.45 58.67 6.54 56.85 5.63 55.02 C 10.26 53.17 15.93 52.75 19.18 48.53 C 14.18 49.53 9.46 51.47 4.61 52.97 C 4.42 51.56 4.22 50.16 4.03 48.75 C 6.30 48.51 8.57 48.27 10.82 47.87 C 8.69 46.84 6.37 46.38 4.05 46.09 C 4.21 44.75 4.38 43.40 4.54 42.06 C 10.76 42.99 16.77 44.97 22.99 45.91 C 22.85 45.39 22.57 44.35 22.43 43.83 C 16.86 42.47 11.29 41.10 5.71 39.79 C 6.66 37.92 7.62 36.06 8.58 34.19 C 10.78 36.01 13.10 37.72 15.80 38.75 C 14.21 36.43 12.46 34.23 10.66 32.07 C 12.11 31.15 13.57 30.24 15.02 29.32 C 16.48 33.12 17.91 37.10 20.97 39.93 C 20.37 35.82 18.69 32.01 16.95 28.28 Z" />
<path fill="#000000" opacity="0.35" d=" M 48.39 70.97 C 48.23 67.37 48.36 63.75 49.13 60.22 C 49.57 63.76 49.65 67.32 49.63 70.89 C 49.32 70.91 48.70 70.95 48.39 70.97 Z" />
<path fill="#000000" opacity="0.35" d=" M 52.19 70.92 C 52.40 68.34 52.65 65.77 53.10 63.22 C 53.41 65.78 53.58 68.36 53.72 70.94 C 53.34 70.93 52.57 70.92 52.19 70.92 Z" />
<path fill="#000000" opacity="0.35" d=" M 44.09 70.89 C 44.44 69.01 44.78 67.13 45.14 65.25 C 45.33 67.14 45.53 69.04 45.75 70.93 C 45.34 70.92 44.51 70.90 44.09 70.89 Z" />
</svg>
