<?xml version="1.0" encoding="UTF-8"?>
<!-- Created with EazyDraw for Mac ( http://www.eazydraw.com/ ) -->

<svg
    version="1.1"
    xmlns:dc="http://purl.org/dc/elements/1.1/"
    xmlns:cc="http://creativecommons.org/ns#"
    xmlns:rdf="http://www.w3.org/1999/02/22-rdf-syntax-ns#"
    xmlns:svg="http://www.w3.org/2000/svg"
    xmlns:xlink="http://www.w3.org/1999/xlink"
    xmlns="http://www.w3.org/2000/svg"
    width="54.39"
    height="66.578495"
    viewBox="0, 0, 54.39, 66.578495"
    preserveAspectRatio="none"
   >
   <defs
      />
   <metadata
      >
      <rdf:RDF>
         <cc:Work
             rdf:about="">
            <dc:format>image/svg+xml</dc:format>
            <dc:type rdf:resource="http://purl.org/dc/dcmitype/StillImage"/>
            <dc:title></dc:title>
         </cc:Work>
      </rdf:RDF>
   </metadata>
   <g
      
       style="fill:#000000;fill-opacity:1;stroke:#000000;stroke-opacity:1;fill-rule:nonzero;stroke-linecap:square;stroke-linejoin:miter;stroke-width:1;stroke-miterlimit:10">
      <g
          id="Shape1">
         <path
             style="fill-opacity:0.34902;stroke:none"
             id="shapePath1"
             d="M44.11,18.89487 C45.53,15.55487 47.18,12.30487 49.04,9.18487 C51.37,12.05487 52.88,15.44487 54.34,18.80487 C53.52,18.96487 51.88,19.27487 51.06,19.43487 C51.07,21.00487 51.07,22.57487 51.06,24.15487 C50.15,24.15487 48.33,24.15487 47.42,24.15487
C47.41,22.57487 47.4,20.98487 47.4,19.39487 C46.58,19.27487 44.94,19.02487 44.11,18.89487 z"/>
      </g>
      <g
          id="Shape2">
         <path
             style="fill-opacity:0.34902;stroke:none"
             id="shapePath2"
             d="M0,22.54487 C1.690000000003,19.43487 3.279999999996,16.27487 4.990000000001,13.17487 C7.4,16.00487 8.860000000004,19.42487 10.34,22.79487 C9.520000000004,22.95487 7.880000000001,23.28487 7.060000000004,23.44487
C7.07,25.01487 7.07,26.58487 7.060000000004,28.14487 C6.150000000003,28.15487 4.330000000002,28.15487 3.420000000001,28.15487 C3.399999999998,26.60487 3.399999999998,25.05487 3.420000000001,23.50487 C2.259999999998,23.24487 1.119999999998,22.92487 0,22.54487
z"/>
      </g>
      <g
          id="Shape3">
         <path
             style="fill-opacity:0.34902;stroke:none"
             id="shapePath3"
             d="M0.895,57.86927 C2.663699999997,53.39177 4.465600000001,48.92837 6.389100000005,44.54947 C9.019999999994,48.56227 10.6451,53.37767 12.2811,58.10867 C11.3746,58.33387 9.5617,58.78447 8.655200000005,59.00977
C8.666300000002,61.22037 8.666300000002,63.43087 8.655200000005,65.64147 C7.527700000004,66.46127 7.527700000004,67.18237 4.631399999998,65.65557 C4.620399999996,63.47317 4.6093,61.30477 4.6093,59.12237
C3.3712,58.71407 2.1331,58.29167 0.895,57.86927 z"/>
      </g>
      <g
          id="Shape4">
         <path
             style="fill-opacity:0.34902;stroke:none"
             id="shapePath4"
             d="M37.8389,49.32207 C39.6076,44.84457 41.4095,40.38117 43.333,36.00227 C45.9639,40.01507 47.589,44.83047 49.225,49.56147 C48.3185,49.78677 46.5056,50.23727 45.5991,50.46257 C45.6102,52.67317 45.6102,54.88367 45.5991,57.09427
C44.4716,57.91407 44.4716,58.63517 41.5753,57.10837 C41.5643,54.92597 41.5532,52.75767 41.5532,50.57517 C40.3151,50.16687 39.077,49.74447 37.8389,49.32207 z"/>
      </g>
      <g
          id="Shape5">
         <path
             style="fill-opacity:0.34902;stroke:none"
             id="shapePath5"
             d="M12.2811,13.36977 C14.0498,8.892370000007 15.8517,4.428869999992 17.7752,0.05 C20.4062,4.062870000001 22.0312,8.878269999996 23.6672,13.60917 C22.7608,13.83447 20.9478,14.28497 20.0414,14.51027 C20.0524,16.72087 20.0524,18.93147 20.0414,21.14207
C18.9138,21.96187 18.9138,22.68287 16.0175,21.15607 C16.0065,18.97367 15.9954,16.80537 15.9954,14.62297 C14.7573,14.21457 13.5192,13.79217 12.2811,13.36977 z"/>
      </g>
   </g>
</svg>
