<?xml version="1.0" encoding="UTF-8" ?>
<!DOCTYPE svg PUBLIC "-//W3C//DTD SVG 1.1//EN" "http://www.w3.org/Graphics/SVG/1.1/DTD/svg11.dtd">
<svg width="85pt" height="85pt" viewBox="0 0 85 85" version="1.1" xmlns="http://www.w3.org/2000/svg">
<path fill="#000000" opacity="0.35" d=" M 49.37 15.49 C 50.03 15.41 51.36 15.23 52.03 15.14 C 52.35 16.86 52.70 18.58 53.05 20.31 C 53.70 18.55 54.31 16.79 54.95 15.03 C 56.31 15.23 57.68 15.43 59.05 15.62 C 57.07 20.68 54.77 25.63 53.53 30.94 C 58.09 27.22 58.84 21.04 61.44 16.08 C 62.85 16.89 64.26 17.69 65.67 18.49 C 63.60 20.84 61.72 23.42 60.91 26.50 C 63.41 24.49 65.64 22.19 67.81 19.83 C 69.33 21.38 70.84 22.93 72.36 24.47 C 66.16 28.30 59.15 31.02 53.87 36.19 C 61.21 34.65 67.04 29.63 73.53 26.18 C 74.01 27.31 74.49 28.43 74.97 29.56 C 72.60 30.66 70.28 31.87 68.10 33.30 C 70.85 33.09 73.58 32.66 76.30 32.22 C 76.56 34.41 76.82 36.59 77.07 38.78 C 72.30 37.11 67.44 35.38 62.32 35.36 C 66.72 38.25 71.87 39.52 76.88 40.87 C 76.42 42.97 75.96 45.06 75.49 47.15 C 69.93 44.13 64.51 40.87 58.88 37.98 C 58.74 38.46 58.46 39.43 58.32 39.91 C 63.69 43.12 69.16 46.16 74.60 49.24 C 73.15 51.21 71.69 53.18 70.22 55.14 C 66.39 51.23 62.77 47.05 58.21 43.98 C 60.17 49.31 64.96 52.63 68.65 56.68 C 66.95 57.75 65.25 58.82 63.54 59.89 C 62.74 57.75 61.93 55.61 61.13 53.47 C 60.62 53.34 59.60 53.08 59.09 52.95 C 59.72 55.61 60.36 58.28 60.99 60.94 C 59.58 61.18 58.18 61.42 56.77 61.66 C 56.53 54.67 55.67 47.73 55.24 40.75 C 54.75 40.58 53.79 40.24 53.30 40.07 C 53.27 47.42 54.30 54.71 54.73 62.04 C 53.23 61.96 51.72 61.88 50.22 61.81 C 50.35 58.62 50.47 55.44 50.59 52.25 C 50.13 52.31 49.22 52.44 48.76 52.50 C 48.38 55.43 47.98 58.36 47.57 61.29 C 45.67 60.56 43.77 59.83 41.87 59.10 C 44.64 54.48 47.45 49.89 50.07 45.18 C 49.43 45.23 48.15 45.33 47.51 45.38 C 45.06 49.57 42.54 53.72 40.00 57.85 C 38.67 56.63 37.35 55.41 36.02 54.19 C 37.92 52.14 39.78 50.06 41.47 47.82 C 38.93 48.99 36.50 50.37 34.13 51.84 C 33.46 50.73 32.80 49.62 32.13 48.51 C 36.97 46.09 42.06 44.22 46.98 41.95 C 48.67 41.32 49.60 39.73 50.51 38.28 C 43.85 40.51 37.67 43.91 31.03 46.20 C 30.72 44.10 30.41 41.99 30.11 39.88 C 33.92 39.63 38.15 39.73 41.07 36.82 C 37.35 36.89 33.65 37.30 29.95 37.73 C 30.22 35.91 30.48 34.08 30.74 32.25 C 32.90 32.36 35.06 32.49 37.21 32.58 C 35.47 31.42 33.73 30.26 31.98 29.11 C 32.77 27.57 33.56 26.04 34.35 24.50 C 38.38 28.28 41.21 33.39 46.26 35.99 C 43.71 30.99 39.77 26.95 36.08 22.80 C 37.23 21.75 38.38 20.71 39.53 19.66 C 40.95 22.34 42.49 24.96 44.35 27.37 C 43.80 24.14 42.91 20.99 41.79 17.92 C 43.63 17.22 45.47 16.52 47.32 15.83 C 47.97 22.59 48.50 29.36 49.48 36.08 C 49.99 35.89 51.01 35.53 51.52 35.34 C 50.74 28.73 50.19 22.10 49.37 15.49 Z" />
<path fill="#000000" opacity="0.35" d=" M 19.91 17.10 C 20.56 20.69 20.70 24.35 20.66 27.99 C 20.33 27.99 19.67 27.97 19.34 27.97 C 19.36 24.34 19.48 20.71 19.91 17.10 Z" />
<path fill="#000000" opacity="0.35" d=" M 23.17 21.01 C 23.57 21.01 24.36 21.02 24.75 21.03 C 24.55 23.66 24.34 26.30 24.07 28.93 C 23.70 26.29 23.44 23.65 23.17 21.01 Z" />
<path fill="#000000" opacity="0.35" d=" M 15.88 22.19 C 16.22 24.12 16.55 26.05 16.89 27.99 C 16.48 27.97 15.66 27.93 15.25 27.92 C 15.46 26.01 15.66 24.10 15.88 22.19 Z" />
<path fill="#000000" opacity="0.35" d=" M 82.13 33.72 C 83.10 32.92 84.05 32.09 85.00 31.26 L 85.00 39.20 C 84.10 37.35 83.12 35.53 82.13 33.72 Z" />
<path fill="#000000" opacity="0.35" d=" M 13.37 33.80 C 16.14 33.47 18.92 33.16 21.70 32.85 C 21.54 35.38 21.39 37.91 21.24 40.45 C 21.73 40.11 22.72 39.43 23.22 39.08 C 23.43 37.41 23.65 35.73 23.86 34.06 C 25.16 34.35 26.46 34.61 27.76 34.85 C 26.95 40.06 23.20 43.87 20.74 48.30 C 23.29 46.98 25.37 44.99 27.29 42.88 C 27.90 45.08 28.55 47.27 29.21 49.46 C 28.29 49.78 26.47 50.44 25.55 50.77 C 29.27 52.35 33.70 54.06 34.25 58.68 C 32.22 57.91 30.21 57.11 28.20 56.30 C 29.28 57.86 30.37 59.41 31.45 60.97 C 30.23 61.94 29.01 62.92 27.79 63.90 C 25.86 59.71 24.61 54.88 20.74 51.98 C 21.92 56.50 23.88 60.75 25.74 65.01 C 24.00 65.35 22.25 65.70 20.50 66.05 C 20.51 64.09 20.51 62.14 20.52 60.19 C 20.05 60.27 19.12 60.45 18.66 60.54 C 18.52 62.43 18.36 64.32 18.22 66.21 C 15.47 65.30 12.73 64.35 10.00 63.39 C 13.21 60.54 16.37 57.52 18.37 53.67 C 14.45 55.51 11.39 58.63 8.58 61.85 C 7.15 60.15 5.71 58.46 4.29 56.75 C 6.91 56.18 9.53 55.62 12.15 55.07 C 12.46 54.56 13.09 53.55 13.40 53.04 C 10.13 53.43 6.86 53.90 3.61 54.43 C 3.36 52.32 3.12 50.21 2.88 48.10 C 8.42 48.63 14.02 50.88 19.58 49.28 C 14.34 47.31 8.74 46.75 3.28 45.68 C 3.84 44.26 4.40 42.85 4.96 41.43 C 7.73 42.41 10.55 43.24 13.46 43.60 C 11.33 42.02 9.13 40.55 6.89 39.12 C 8.33 37.68 9.78 36.24 11.22 34.81 C 13.54 38.65 15.96 42.48 19.15 45.68 C 18.26 41.28 15.85 37.46 13.37 33.80 Z" />
<path fill="#000000" opacity="0.35" d=" M 80.33 34.99 C 81.94 37.67 83.58 40.34 85.00 43.12 L 85.00 46.82 C 83.11 46.65 81.21 46.48 79.32 46.32 C 79.68 42.54 80.00 38.76 80.33 34.99 Z" />
<path fill="#000000" opacity="0.35" d=" M 78.16 48.40 C 80.44 48.59 82.72 48.76 85.00 48.94 L 85.00 52.48 C 82.32 55.45 79.29 58.08 76.35 60.78 C 75.18 59.23 74.00 57.70 72.84 56.14 C 75.95 55.02 79.06 53.91 82.16 52.78 C 80.15 52.59 78.13 52.41 76.11 52.24 C 76.80 50.96 77.48 49.68 78.16 48.40 Z" />
<path fill="#000000" opacity="0.35" d=" M 78.24 62.20 C 80.56 59.97 82.90 57.76 85.00 55.32 L 85.00 65.33 C 82.79 64.18 80.51 63.20 78.24 62.20 Z" />
<path fill="#000000" opacity="0.35" d=" M 36.34 64.02 C 36.67 64.02 37.32 64.00 37.65 64.00 C 37.63 67.63 37.53 71.27 37.11 74.89 C 36.42 71.31 36.29 67.66 36.34 64.02 Z" />
<path fill="#000000" opacity="0.35" d=" M 40.82 74.95 C 40.38 71.98 40.44 68.96 41.19 66.05 C 41.62 69.01 41.55 72.04 40.82 74.95 Z" />
<path fill="#000000" opacity="0.35" d=" M 32.82 67.96 C 33.29 70.28 33.34 72.66 33.25 75.02 C 32.67 72.71 32.64 70.32 32.82 67.96 Z" />
</svg>
