<?xml version="1.0" encoding="UTF-8" ?>
<!DOCTYPE svg PUBLIC "-//W3C//DTD SVG 1.1//EN" "http://www.w3.org/Graphics/SVG/1.1/DTD/svg11.dtd">
<svg width="85pt" height="85pt" viewBox="0 0 85 85" version="1.1" xmlns="http://www.w3.org/2000/svg">
<path fill="#000000" opacity="0.35" d=" M 35.41 24.03 C 35.27 20.38 35.29 16.70 36.13 13.14 C 36.58 16.73 36.64 20.35 36.62 23.96 C 36.32 23.98 35.71 24.01 35.41 24.03 Z" />
<path fill="#000000" opacity="0.35" d=" M 39.82 16.12 C 40.69 18.96 40.68 21.95 40.20 24.87 C 39.29 22.03 39.32 19.03 39.82 16.12 Z" />
<path fill="#000000" opacity="0.35" d=" M 31.74 18.08 C 32.48 20.28 32.53 22.63 32.23 24.92 C 31.54 22.71 31.48 20.37 31.74 18.08 Z" />
<path fill="#000000" opacity="0.35" d=" M 54.22 23.19 C 55.71 23.11 57.21 23.04 58.71 22.97 C 58.37 30.32 57.18 37.63 57.32 45.01 C 57.81 44.78 58.80 44.34 59.29 44.12 C 59.60 37.18 60.60 30.29 60.76 23.35 C 62.16 23.57 63.55 23.79 64.95 24.01 C 64.33 26.80 63.70 29.59 63.10 32.38 C 63.61 32.15 64.63 31.68 65.14 31.45 C 65.94 29.33 66.74 27.22 67.56 25.11 C 69.25 26.18 70.94 27.25 72.64 28.32 C 69.13 32.48 63.93 35.53 62.33 41.02 C 66.84 37.91 70.38 33.70 74.23 29.87 C 75.70 31.82 77.15 33.78 78.60 35.76 C 72.85 39.32 66.34 41.81 61.39 46.56 C 68.21 45.73 73.36 40.55 79.47 37.87 C 79.95 39.95 80.43 42.03 80.89 44.12 C 75.96 45.61 70.69 46.55 66.43 49.63 C 71.54 49.74 76.31 47.79 81.07 46.21 C 80.81 48.43 80.55 50.65 80.29 52.88 C 77.67 52.45 74.74 50.87 72.31 52.74 C 74.48 53.60 76.69 54.35 78.91 55.06 C 78.61 56.31 78.31 57.56 78.00 58.80 C 71.16 55.82 65.48 50.28 58.00 48.87 C 63.12 54.09 70.21 56.56 76.22 60.54 C 74.84 62.11 73.45 63.67 72.06 65.23 C 69.83 62.87 67.52 60.57 64.88 58.68 C 65.69 61.77 67.69 64.28 69.83 66.57 C 68.25 67.29 66.65 67.98 65.07 68.69 C 62.86 63.63 61.93 57.68 57.62 53.83 C 58.53 59.30 61.13 64.23 63.04 69.38 C 61.68 69.57 60.32 69.77 58.96 69.96 C 58.33 68.21 57.68 66.46 57.04 64.72 C 56.68 66.41 56.39 68.12 56.03 69.82 C 55.36 69.76 54.03 69.63 53.37 69.57 C 54.23 62.93 54.70 56.24 55.53 49.59 C 55.02 49.44 54.00 49.13 53.49 48.97 C 52.43 55.66 52.03 62.43 51.31 69.16 C 49.50 68.49 47.69 67.81 45.88 67.13 C 46.97 64.07 47.85 60.93 48.30 57.72 C 46.34 60.03 44.86 62.68 43.61 65.43 C 42.44 64.36 41.26 63.28 40.09 62.21 C 43.68 58.04 47.68 54.11 50.25 49.17 C 44.97 51.36 42.58 56.95 38.32 60.44 C 37.57 58.98 36.82 57.52 36.08 56.06 C 37.87 54.73 39.57 53.26 41.04 51.57 C 38.96 52.13 36.90 52.76 34.86 53.41 C 34.55 51.35 34.24 49.28 33.93 47.22 C 37.19 47.60 40.43 48.04 43.68 48.51 C 43.75 47.97 43.89 46.89 43.96 46.35 C 40.69 45.81 37.39 45.40 34.08 45.07 C 34.40 42.99 34.73 40.90 35.07 38.82 C 41.79 41.04 47.93 44.78 54.81 46.53 C 53.58 44.99 52.25 43.43 50.35 42.73 C 45.58 40.69 40.77 38.78 36.13 36.47 C 36.82 35.34 37.50 34.21 38.19 33.09 C 40.43 34.70 42.83 36.13 45.46 37.02 C 43.81 34.81 41.91 32.81 39.97 30.87 C 41.31 29.63 42.65 28.39 44.00 27.15 C 46.55 31.32 49.10 35.50 51.61 39.70 C 52.21 39.72 53.43 39.78 54.03 39.80 C 51.49 35.03 48.49 30.53 45.93 25.77 C 47.81 25.10 49.68 24.42 51.56 23.74 C 52.00 26.74 52.42 29.74 52.82 32.74 C 53.26 32.69 54.16 32.58 54.60 32.53 C 54.48 29.42 54.35 26.30 54.22 23.19 Z" />
<path fill="#000000" opacity="0.35" d=" M 0.00 23.03 C 0.53 23.56 1.59 24.60 2.12 25.12 C 2.51 27.11 2.89 29.10 3.28 31.08 C 3.87 28.74 4.45 26.39 5.02 24.04 C 6.36 24.25 7.71 24.46 9.06 24.67 C 7.76 31.18 5.54 37.56 5.51 44.27 C 8.81 38.57 9.66 31.96 11.24 25.67 C 13.01 26.61 14.80 27.50 16.58 28.45 C 15.04 30.94 13.54 33.46 12.12 36.03 C 14.40 34.26 16.64 32.43 18.84 30.56 C 19.76 32.01 20.68 33.45 21.60 34.89 C 17.76 36.50 13.99 38.35 10.71 40.95 C 14.88 40.25 18.85 38.80 22.70 37.12 C 23.19 39.29 23.68 41.46 24.17 43.63 C 19.02 43.55 13.85 43.82 8.84 45.06 C 13.75 46.55 18.91 46.61 23.99 46.38 C 23.61 48.20 23.23 50.02 22.85 51.85 C 20.71 51.56 18.56 51.26 16.42 50.98 C 18.00 52.31 19.58 53.64 21.16 54.97 C 20.09 56.44 18.98 57.88 17.91 59.36 C 16.07 55.90 14.00 52.56 11.41 49.62 C 12.43 53.59 13.98 57.40 15.78 61.08 C 14.15 61.94 12.53 62.79 10.91 63.65 C 9.61 57.57 8.91 51.17 5.60 45.76 C 5.71 52.08 7.48 58.19 8.88 64.31 C 7.46 64.55 6.05 64.80 4.63 65.05 C 4.23 63.05 3.85 61.05 3.46 59.05 C 2.26 61.39 1.05 63.74 0.00 66.16 L 0.00 57.33 C 1.00 53.67 1.89 49.75 0.00 46.17 L 0.00 39.61 C 0.40 38.87 1.20 37.38 1.60 36.63 C 1.21 34.39 0.54 32.20 0.00 29.99 L 0.00 23.03 Z" />
<path fill="#000000" opacity="0.35" d=" M 26.41 60.03 C 26.71 60.02 27.31 60.00 27.61 59.99 C 27.64 63.61 27.60 67.23 27.15 70.83 C 26.28 67.30 26.25 63.65 26.41 60.03 Z" />
<path fill="#000000" opacity="0.35" d=" M 30.81 70.89 C 30.34 67.97 30.28 64.95 31.19 62.11 C 31.65 65.03 31.72 68.04 30.81 70.89 Z" />
<path fill="#000000" opacity="0.35" d=" M 22.76 64.07 C 23.45 66.28 23.52 68.62 23.27 70.92 C 22.53 68.71 22.46 66.36 22.76 64.07 Z" />
</svg>
