<?xml version="1.0"?>
<svg version="1.1" xmlns="http://www.w3.org/2000/svg" xmlns:xlink="http://www.w3.org/1999/xlink" width="85" height="85">
    <desc iVinci="yes" version="4.6" gridStep="20" showGrid="no" snapToGrid="no" codePlatform="0"/>
            <desc shapeID="1" type="0" basicInfo-basicType="0" basicInfo-roundedRectRadius="12" basicInfo-polygonSides="6" basicInfo-starPoints="5" bounding="rect(-5.115,-7.485,10.23,14.97)" text="" font-familyName="" font-pixelSize="20" font-bold="0" font-underline="0" font-alignment="1" strokeStyle="0" markerStart="0" markerEnd="0" shadowEnabled="0" shadowOffsetX="0" shadowOffsetY="2" shadowBlur="4" shadowOpacity="160" blurEnabled="0" blurRadius="4" transform="matrix(1,0,0,1,64.425,25.515)" pers-center="0,0" pers-size="0,0" pers-start="0,0" pers-end="0,0" locked="0" mesh="" flag=""/>
            <path id="shapePath1" d="M59.31,27.74 C60.73,24.4 62.38,21.15 64.24,18.03 C66.57,20.9 68.08,24.29 69.54,27.65 C68.72,27.81 67.08,28.12 66.26,28.28 C66.27,29.85 66.27,31.42 66.26,33 C65.35,33 63.53,33 62.62,33 C62.61,31.42 62.6,29.83 62.6,28.24 C61.78,28.12 60.14,27.87 59.31,27.74 Z" style="stroke:none;fill-rule:nonzero;fill:#000000;fill-opacity:0.34902;"/>
            <desc shapeID="2" type="0" basicInfo-basicType="0" basicInfo-roundedRectRadius="12" basicInfo-polygonSides="6" basicInfo-starPoints="5" bounding="rect(-5.17,-7.49,10.34,14.98)" text="" font-familyName="" font-pixelSize="20" font-bold="0" font-underline="0" font-alignment="1" strokeStyle="0" markerStart="0" markerEnd="0" shadowEnabled="0" shadowOffsetX="0" shadowOffsetY="2" shadowBlur="4" shadowOpacity="160" blurEnabled="0" blurRadius="4" transform="matrix(1,0,0,1,20.37,29.51)" pers-center="0,0" pers-size="0,0" pers-start="0,0" pers-end="0,0" locked="0" mesh="" flag=""/>
            <path id="shapePath2" d="M15.2,31.39 C16.89,28.28 18.48,25.12 20.19,22.02 C22.6,24.85 24.06,28.27 25.54,31.64 C24.72,31.8 23.08,32.13 22.26,32.29 C22.27,33.86 22.27,35.43 22.26,36.99 C21.35,37 19.53,37 18.62,37 C18.6,35.45 18.6,33.9 18.62,32.35 C17.46,32.09 16.32,31.77 15.2,31.39 Z" style="stroke:none;fill-rule:nonzero;fill:#000000;fill-opacity:0.34902;"/>
            <desc shapeID="3" type="0" basicInfo-basicType="0" basicInfo-roundedRectRadius="12" basicInfo-polygonSides="6" basicInfo-starPoints="5" bounding="rect(-5.15,-7.81232,10.3,15.6247)" text="" font-familyName="" font-pixelSize="20" font-bold="0" font-underline="0" font-alignment="1" strokeStyle="0" markerStart="0" markerEnd="0" shadowEnabled="0" shadowOffsetX="0" shadowOffsetY="2" shadowBlur="4" shadowOpacity="160" blurEnabled="0" blurRadius="4" transform="matrix(1.10545,0,0,1.40801,21.7881,64.3944)" pers-center="0,0" pers-size="0,0" pers-start="0,0" pers-end="0,0" locked="0" mesh="" flag=""/>
            <path id="shapePath3" d="M16.095,66.7144 C17.8637,62.2369 19.6656,57.7735 21.5891,53.3946 C24.22,57.4074 25.8451,62.2228 27.4811,66.9538 C26.5746,67.179 24.7617,67.6296 23.8552,67.8549 C23.8663,70.0655 23.8663,72.276 23.8552,74.4866 C22.7277,75.3064 22.7277,76.0275 19.8314,74.5007 C19.8204,72.3183 19.8093,70.1499 19.8093,67.9675 C18.5712,67.5592 17.3331,67.1368 16.095,66.7144 Z" style="stroke:none;fill-rule:nonzero;fill:#000000;fill-opacity:0.34902;"/>
            <desc shapeID="4" type="0" basicInfo-basicType="0" basicInfo-roundedRectRadius="12" basicInfo-polygonSides="6" basicInfo-starPoints="5" bounding="rect(-5.15,-7.81232,10.3,15.6247)" text="" font-familyName="" font-pixelSize="20" font-bold="0" font-underline="0" font-alignment="1" strokeStyle="0" markerStart="0" markerEnd="0" shadowEnabled="0" shadowOffsetX="0" shadowOffsetY="2" shadowBlur="4" shadowOpacity="160" blurEnabled="0" blurRadius="4" transform="matrix(1.10545,0,0,1.40801,58.732,55.8472)" pers-center="0,0" pers-size="0,0" pers-start="0,0" pers-end="0,0" locked="0" mesh="" flag=""/>
            <path id="shapePath4" d="M53.0389,58.1672 C54.8076,53.6897 56.6095,49.2263 58.533,44.8474 C61.1639,48.8602 62.789,53.6756 64.425,58.4066 C63.5185,58.6319 61.7056,59.0824 60.7991,59.3077 C60.8102,61.5183 60.8102,63.7288 60.7991,65.9394 C59.6716,66.7592 59.6716,67.4803 56.7753,65.9535 C56.7643,63.7711 56.7532,61.6028 56.7532,59.4203 C55.5151,59.012 54.277,58.5896 53.0389,58.1672 Z" style="stroke:none;fill-rule:nonzero;fill:#000000;fill-opacity:0.34902;"/>
            <desc shapeID="5" type="0" basicInfo-basicType="0" basicInfo-roundedRectRadius="12" basicInfo-polygonSides="6" basicInfo-starPoints="5" bounding="rect(-5.15,-7.81232,10.3,15.6247)" text="" font-familyName="" font-pixelSize="20" font-bold="0" font-underline="0" font-alignment="1" strokeStyle="0" markerStart="0" markerEnd="0" shadowEnabled="0" shadowOffsetX="0" shadowOffsetY="2" shadowBlur="4" shadowOpacity="160" blurEnabled="0" blurRadius="4" transform="matrix(1.10545,0,0,1.40801,33.1742,19.895)" pers-center="0,0" pers-size="0,0" pers-start="0,0" pers-end="0,0" locked="0" mesh="" flag=""/>
            <path id="shapePath5" d="M27.4811,22.2149 C29.2498,17.7375 31.0517,13.274 32.9752,8.89513 C35.6062,12.908 37.2312,17.7234 38.8672,22.4543 C37.9608,22.6796 36.1478,23.1301 35.2414,23.3554 C35.2524,25.566 35.2524,27.7766 35.2414,29.9872 C34.1138,30.807 34.1138,31.528 31.2175,30.0012 C31.2065,27.8188 31.1954,25.6505 31.1954,23.4681 C29.9573,23.0597 28.7192,22.6373 27.4811,22.2149 Z" style="stroke:none;fill-rule:nonzero;fill:#000000;fill-opacity:0.34902;"/>
    </g>
</svg>
