<?xml version="1.0" encoding="UTF-8" ?>
<!DOCTYPE svg PUBLIC "-//W3C//DTD SVG 1.1//EN" "http://www.w3.org/Graphics/SVG/1.1/DTD/svg11.dtd">
<svg width="85pt" height="85pt" viewBox="0 0 85 85" version="1.1" xmlns="http://www.w3.org/2000/svg">
<path fill="#000000" opacity="0.35" d=" M 38.96 17.26 C 41.40 16.80 43.85 16.36 46.29 15.91 C 45.80 21.37 47.06 28.85 40.91 31.57 C 36.41 31.38 32.13 29.73 27.74 28.85 C 28.68 26.96 29.61 25.08 30.54 23.19 C 32.74 25.12 35.24 26.68 38.01 27.69 C 36.36 25.53 34.55 23.49 32.68 21.52 C 34.10 20.41 35.52 19.30 36.94 18.19 C 38.42 22.08 40.05 26.02 42.92 29.12 C 42.42 24.93 40.74 21.03 38.96 17.26 Z" />
<path fill="#000000" opacity="0.35" d=" M 48.38 15.94 C 50.43 16.46 52.48 16.98 54.53 17.50 C 53.76 19.46 53.02 21.42 52.27 23.39 C 50.96 24.04 49.65 24.69 48.34 25.34 C 48.35 22.21 48.36 19.07 48.38 15.94 Z" />
<path fill="#000000" opacity="0.35" d=" M 16.86 17.16 C 17.89 20.99 17.90 25.00 16.85 28.83 C 16.30 24.96 16.30 21.03 16.86 17.16 Z" />
<path fill="#000000" opacity="0.35" d=" M 53.96 22.69 C 54.91 21.41 55.87 20.12 56.83 18.84 C 58.26 19.79 59.68 20.73 61.11 21.68 C 58.72 22.02 56.34 22.36 53.96 22.69 Z" />
<path fill="#000000" opacity="0.35" d=" M 20.19 27.98 C 20.43 25.37 20.68 22.75 21.09 20.15 C 21.38 22.76 21.57 25.37 21.71 27.98 C 21.33 27.98 20.57 27.98 20.19 27.98 Z" />
<path fill="#000000" opacity="0.35" d=" M 12.41 23.08 C 12.70 23.06 13.29 23.02 13.58 22.99 C 13.58 24.67 13.58 26.34 13.58 28.02 C 13.29 28.00 12.71 27.96 12.42 27.94 C 12.42 26.32 12.41 24.70 12.41 23.08 Z" />
<path fill="#000000" opacity="0.35" d=" M 55.14 25.67 C 56.61 25.43 58.07 25.19 59.53 24.95 C 59.69 26.89 59.86 28.83 60.06 30.77 C 61.31 29.05 62.23 27.12 62.96 25.12 C 63.92 25.32 64.88 25.52 65.84 25.73 C 64.41 31.28 62.91 36.84 62.06 42.52 C 62.60 42.24 63.67 41.68 64.21 41.40 C 65.47 36.31 66.73 31.22 67.99 26.13 C 70.01 27.46 72.03 28.78 74.06 30.11 C 72.48 32.13 70.94 34.18 69.53 36.32 C 71.94 35.08 74.22 33.62 76.46 32.10 C 77.36 33.79 78.23 35.50 79.13 37.20 C 75.50 38.60 71.87 40.00 68.24 41.41 C 68.29 41.96 68.41 43.07 68.46 43.62 C 72.37 42.14 76.28 40.66 80.19 39.20 C 80.50 41.28 80.80 43.37 81.11 45.46 C 78.23 45.26 75.22 44.87 72.44 45.95 C 75.16 46.98 78.02 47.53 80.88 48.00 C 80.33 50.03 79.83 52.07 79.27 54.10 C 73.57 51.58 68.58 47.14 62.21 46.43 C 66.75 50.72 72.69 52.91 78.03 55.94 C 77.32 57.04 76.60 58.14 75.89 59.25 C 73.94 58.13 71.99 57.03 69.98 56.03 C 71.17 57.89 72.43 59.71 73.69 61.53 C 71.81 62.48 69.92 63.43 68.03 64.37 C 66.11 59.82 65.87 53.97 61.48 50.93 C 62.53 55.85 64.43 60.52 66.06 65.26 C 64.62 65.51 63.18 65.76 61.74 66.02 C 61.52 63.73 61.27 61.45 60.90 59.18 C 59.90 61.32 59.39 63.63 59.07 65.96 C 57.71 65.76 56.35 65.56 54.99 65.35 C 56.10 59.19 57.94 53.18 58.90 46.99 C 58.39 47.13 57.36 47.42 56.85 47.56 C 55.46 53.12 54.08 58.68 52.88 64.29 C 50.98 63.33 49.09 62.39 47.19 61.46 C 49.11 59.25 50.66 56.76 51.72 54.02 C 49.43 55.71 47.30 57.58 45.23 59.52 C 44.26 58.01 43.30 56.50 42.33 55.00 C 46.18 53.54 50.06 51.92 53.13 49.09 C 48.93 49.58 45.03 51.25 41.25 53.03 C 40.80 50.57 40.34 48.11 39.90 45.64 C 44.60 46.16 49.34 46.25 54.05 45.72 C 53.83 45.21 53.38 44.19 53.16 43.67 C 48.75 43.65 44.34 43.64 39.93 43.61 C 40.46 41.55 41.00 39.48 41.53 37.42 C 43.42 38.23 45.32 39.02 47.23 39.76 C 46.05 37.96 44.59 36.37 42.99 34.93 C 44.09 33.50 45.20 32.08 46.29 30.65 C 47.92 34.11 49.80 37.50 52.45 40.29 C 51.72 36.27 50.06 32.53 48.13 28.96 C 49.77 28.09 51.41 27.23 53.06 26.36 C 54.21 31.81 55.45 37.24 56.75 42.67 C 57.26 42.70 58.29 42.78 58.80 42.82 C 57.77 37.06 56.39 31.38 55.14 25.67 Z" />
<path fill="#000000" opacity="0.35" d=" M 26.59 31.04 C 31.02 31.82 35.41 32.80 39.78 33.86 C 39.21 35.28 38.63 36.69 38.06 38.11 C 34.29 39.47 30.49 40.78 26.66 41.99 C 26.45 40.58 26.23 39.16 26.01 37.75 C 28.29 37.50 30.58 37.27 32.85 36.89 C 30.70 35.89 28.37 35.46 26.06 35.06 C 26.23 33.72 26.41 32.38 26.59 31.04 Z" />
<path fill="#000000" opacity="0.35" d=" M 0.00 33.92 C 1.52 33.99 3.03 34.05 4.55 34.11 C 4.55 36.79 4.57 39.46 4.59 42.13 C 5.65 39.73 6.64 37.30 7.67 34.88 C 9.27 35.60 10.88 36.33 12.48 37.05 C 9.55 40.77 6.65 44.52 3.83 48.33 C 4.37 48.41 5.43 48.58 5.96 48.67 C 8.73 45.27 11.55 41.90 14.42 38.59 C 15.65 40.61 16.83 42.65 18.04 44.68 C 15.83 45.81 13.66 47.03 11.46 48.19 C 13.92 47.94 16.38 47.83 18.84 47.56 C 18.88 49.27 18.92 50.98 18.96 52.69 C 15.28 52.03 11.58 51.53 7.85 51.34 C 11.16 52.92 14.60 54.20 18.05 55.43 C 17.52 56.85 17.00 58.28 16.47 59.71 C 14.80 58.81 13.13 57.91 11.45 57.01 C 12.36 58.71 13.27 60.40 14.18 62.09 C 13.07 63.02 11.98 63.95 10.88 64.89 C 9.10 60.50 6.95 56.22 3.86 52.58 C 4.94 57.23 6.74 61.66 8.70 66.00 C 7.02 66.35 5.35 66.69 3.68 67.04 C 3.48 64.69 3.27 62.33 3.05 59.99 C 1.97 62.62 0.93 65.27 0.00 67.96 L 0.00 51.36 C 1.59 50.56 1.59 49.98 0.00 49.59 L 0.00 47.07 C 0.40 46.36 1.21 44.95 1.61 44.24 C 1.06 42.79 0.51 41.34 0.00 39.88 L 0.00 33.92 Z" />
<path fill="#000000" opacity="0.35" d=" M 27.62 44.01 C 30.81 42.94 34.00 41.88 37.20 40.87 C 37.31 45.32 37.18 49.78 36.66 54.21 C 35.29 53.43 33.93 52.64 32.57 51.86 C 33.79 49.97 35.00 48.08 36.19 46.19 C 34.27 47.33 32.33 48.44 30.38 49.52 C 29.46 47.69 28.54 45.85 27.62 44.01 Z" />
<path fill="#000000" opacity="0.35" d=" M 29.88 67.82 C 29.17 63.96 29.22 60.00 30.11 56.18 C 30.83 60.04 30.78 64.00 29.88 67.82 Z" />
<path fill="#000000" opacity="0.35" d=" M 33.87 59.07 C 34.58 61.96 34.65 64.96 34.17 67.90 C 33.42 65.01 33.31 62.01 33.87 59.07 Z" />
<path fill="#000000" opacity="0.35" d=" M 25.80 61.10 C 26.58 63.32 26.55 65.69 25.80 67.91 C 25.67 65.64 25.67 63.37 25.80 61.10 Z" />
</svg>
