<?xml version="1.0" encoding="UTF-8" ?>
<!DOCTYPE svg PUBLIC "-//W3C//DTD SVG 1.1//EN" "http://www.w3.org/Graphics/SVG/1.1/DTD/svg11.dtd">
<svg width="85pt" height="85pt" viewBox="0 0 85 85" version="1.1" xmlns="http://www.w3.org/2000/svg">
<path fill="#000000" opacity="0.35" d=" M 39.97 16.34 C 42.28 15.81 44.59 15.30 46.91 14.81 C 47.26 19.52 47.33 24.24 47.36 28.97 C 47.85 28.77 48.84 28.37 49.33 28.18 C 49.35 23.77 49.36 19.35 49.39 14.94 C 51.39 15.45 53.40 15.95 55.41 16.47 C 54.75 18.50 54.09 20.53 53.47 22.57 C 55.06 21.02 56.60 19.43 58.14 17.84 C 59.53 19.02 60.92 20.19 62.30 21.38 C 58.90 22.97 55.41 24.60 52.87 27.47 C 56.86 26.80 60.47 24.97 64.00 23.12 C 64.91 24.77 65.82 26.41 66.72 28.06 C 61.25 29.20 55.79 30.43 50.36 31.75 C 50.30 32.26 50.20 33.27 50.14 33.77 C 55.93 32.87 61.59 31.33 67.33 30.16 C 67.56 31.54 67.79 32.93 68.01 34.32 C 66.03 34.69 63.75 34.67 62.41 36.46 C 64.25 36.87 66.11 37.24 67.97 37.60 C 67.74 38.68 67.50 39.76 67.27 40.83 C 61.68 39.49 56.17 37.79 50.45 37.11 C 50.73 37.63 51.31 38.68 51.60 39.20 C 56.65 40.47 61.69 41.72 66.75 42.94 C 65.55 45.01 64.33 47.07 63.11 49.13 C 61.08 47.50 58.99 45.93 56.75 44.60 C 57.79 47.02 59.29 49.20 60.97 51.22 C 59.24 52.21 57.51 53.20 55.79 54.19 C 54.23 50.05 53.05 45.62 50.15 42.17 C 50.24 46.78 52.12 51.02 53.83 55.21 C 51.70 55.50 49.56 55.78 47.42 56.08 C 47.83 53.23 48.11 50.29 47.09 47.53 C 46.05 50.21 45.47 53.03 45.08 55.88 C 43.03 55.37 40.98 54.86 38.94 54.35 C 41.48 48.76 45.12 43.70 47.01 37.83 C 45.70 38.50 44.28 39.21 43.64 40.64 C 41.32 44.71 39.34 48.96 37.04 53.04 C 35.88 52.28 34.72 51.51 33.56 50.75 C 34.80 48.92 36.05 47.10 37.19 45.21 C 35.22 46.26 33.30 47.40 31.42 48.60 C 30.49 46.74 29.56 44.89 28.64 43.03 C 33.26 41.13 38.94 40.76 42.21 36.54 C 37.20 37.48 32.50 39.47 27.67 41.00 C 27.45 39.60 27.24 38.21 27.03 36.81 C 29.34 36.61 31.75 36.44 33.69 35.01 C 31.48 34.66 29.25 34.49 27.03 34.28 C 27.21 32.88 27.39 31.47 27.57 30.07 C 33.82 30.91 39.79 33.10 46.05 33.86 C 45.89 33.35 45.58 32.35 45.42 31.84 C 39.87 30.46 34.34 29.05 28.74 27.91 C 29.67 25.97 30.64 24.04 31.60 22.11 C 33.76 24.06 36.09 25.94 39.02 26.58 C 37.36 24.41 35.48 22.41 33.55 20.49 C 35.02 19.39 36.50 18.30 37.98 17.21 C 39.55 20.96 40.71 25.16 43.97 27.86 C 43.42 23.78 41.69 20.03 39.97 16.34 Z" />
<path fill="#000000" opacity="0.35" d=" M 12.43 17.99 C 12.72 18.00 13.29 18.03 13.57 18.05 C 13.58 21.35 13.58 24.66 13.57 27.97 C 13.29 27.97 12.71 27.98 12.43 27.98 C 12.42 24.65 12.42 21.32 12.43 17.99 Z" />
<path fill="#000000" opacity="0.35" d=" M 16.31 21.07 C 16.66 21.05 17.37 21.00 17.72 20.98 C 17.66 23.60 17.50 26.23 16.85 28.78 C 16.56 26.22 16.41 23.65 16.31 21.07 Z" />
<path fill="#000000" opacity="0.35" d=" M 8.75 22.18 C 9.68 24.33 9.78 26.68 8.71 28.79 C 8.60 26.59 8.61 24.38 8.75 22.18 Z" />
<path fill="#000000" opacity="0.35" d=" M 78.29 28.20 C 80.52 27.36 82.76 26.53 85.00 25.71 L 85.00 40.07 C 81.21 37.86 77.31 35.85 73.62 33.47 C 74.57 32.65 75.53 31.82 76.49 31.00 C 78.32 31.97 80.15 32.95 81.98 33.91 C 80.76 32.00 79.52 30.10 78.29 28.20 Z" />
<path fill="#000000" opacity="0.35" d=" M 0.00 30.43 C 1.28 33.47 1.67 36.74 1.88 40.00 C 2.74 37.61 3.67 35.25 4.61 32.88 C 6.25 33.61 7.89 34.33 9.54 35.06 C 6.28 38.99 2.76 42.88 0.98 47.75 C 4.94 44.61 8.09 40.63 11.17 36.65 C 12.49 38.60 13.82 40.55 15.13 42.51 C 12.92 43.74 10.70 44.96 8.50 46.20 C 10.95 46.00 13.40 45.79 15.85 45.58 C 15.88 47.35 15.90 49.11 15.92 50.88 C 12.36 50.03 8.77 49.28 5.13 48.81 C 8.09 51.00 11.52 52.35 15.02 53.39 C 14.54 54.82 14.06 56.24 13.58 57.67 C 11.87 56.80 10.16 55.93 8.45 55.06 C 9.36 56.73 10.28 58.39 11.19 60.06 C 10.09 61.02 8.97 61.97 7.84 62.92 C 6.06 58.55 4.12 54.15 0.86 50.66 C 1.90 55.32 3.78 59.72 5.74 64.05 C 3.82 64.36 1.91 64.67 0.00 64.98 L 0.00 30.43 Z" />
<path fill="#000000" opacity="0.35" d=" M 72.71 35.94 C 76.87 38.04 81.09 40.07 85.00 42.63 L 85.00 63.32 C 82.56 62.39 80.14 61.39 77.73 60.38 C 79.40 58.15 81.08 55.92 82.69 53.64 C 80.29 54.98 77.92 56.38 75.58 57.81 C 74.66 56.16 73.75 54.52 72.85 52.87 C 77.05 51.33 81.25 49.69 84.99 47.19 C 80.39 47.48 76.01 48.95 71.81 50.76 C 71.51 48.72 71.20 46.68 70.90 44.64 C 73.75 44.59 76.59 44.53 79.43 44.29 C 76.74 43.23 73.95 42.49 71.14 41.87 C 71.66 39.89 72.18 37.91 72.71 35.94 Z" />
<path fill="#000000" opacity="0.35" d=" M 29.86 56.23 C 30.90 59.98 30.79 63.92 30.17 67.73 C 29.00 64.00 29.28 60.04 29.86 56.23 Z" />
<path fill="#000000" opacity="0.35" d=" M 34.24 67.78 C 33.10 65.01 33.13 61.99 34.24 59.23 C 34.58 62.07 34.56 64.94 34.24 67.78 Z" />
<path fill="#000000" opacity="0.35" d=" M 25.11 66.91 C 25.45 65.03 25.77 63.15 26.14 61.27 C 26.35 63.17 26.54 65.07 26.72 66.97 C 26.32 66.95 25.51 66.93 25.11 66.91 Z" />
</svg>
