<?xml version="1.0" encoding="UTF-8"?>
<!-- Created with EazyDraw for Mac ( http://www.eazydraw.com/ ) -->

<svg version="1.1" xmlns:dc="http://purl.org/dc/elements/1.1/" xmlns:cc="http://creativecommons.org/ns#" xmlns:rdf="http://www.w3.org/1999/02/22-rdf-syntax-ns#" xmlns:svg="http://www.w3.org/2000/svg" xmlns:xlink="http://www.w3.org/1999/xlink" xmlns="http://www.w3.org/2000/svg" width="58.87046875" height="57.922245" viewBox="0, 0, 58.87046875, 57.922245" preserveAspectRatio="none">
<defs/>
<metadata>
<rdf:RDF>
<cc:Work rdf:about="">
<dc:format>image/svg+xml</dc:format>
<dc:type rdf:resource="http://purl.org/dc/dcmitype/StillImage"/>
<dc:title></dc:title>
</cc:Work>
</rdf:RDF>
</metadata>
<g style="fill:#000000;fill-opacity:1;stroke:#000000;stroke-opacity:1;fill-rule:nonzero;stroke-linecap:square;stroke-linejoin:miter;stroke-width:1;stroke-miterlimit:10">
<g id="Shape1">
<path style="fill-opacity:0.34902;stroke:none" id="shapePath1" d="M48.59046875,15.10971375 C50.01046875,11.76971375 51.66046875,8.519713749995 53.52046875,5.39971375 C55.85046875,8.269713749999 57.36046875,11.65971375 58.82046875,15.01971375 C58.00046875,15.17971375 56.36046875,15.48971375 55.54046875,15.64971375
C55.55046875,17.21971375 55.55046875,18.78971375 55.54046875,20.36971375 C54.63046875,20.36971375 52.81046875,20.36971375 51.90046875,20.36971375 C51.89046875,18.78971375 51.88046875,17.19971375 51.88046875,15.60971375
C51.06046875,15.48971375 49.42046875,15.23971375 48.59046875,15.10971375 z"/>
</g>
<g id="Shape2">
<path style="fill-opacity:0.34902;stroke:none" id="shapePath2" d="M0,15.58002625 C1.690000000003,12.47002625 3.279999999996,9.310026249998 4.990000000001,6.21002625 C7.4,9.040026249993 8.860000000004,12.46002625 10.34,15.83002625 C9.520000000004,15.99002625 7.880000000001,16.32002625 7.060000000004,16.48002625
C7.07,18.05002625 7.07,19.62002625 7.060000000004,21.18002625 C6.150000000003,21.19002625 4.330000000002,21.19002625 3.420000000001,21.19002625 C3.399999999998,19.64002625 3.399999999998,18.09002625 3.420000000001,16.54002625
C2.259999999998,16.28002625 1.119999999998,15.96002625 0,15.58002625 z"/>
</g>
<g id="Shape3">
<path style="fill-opacity:0.34902;stroke:none" id="shapePath3" d="M23.441875,49.21302 C25.210575,44.73552 27.012475,40.27212 28.935975,35.89322 C31.566875,39.90602 33.191975,44.72142 34.827975,49.45242 C33.921475,49.67762 32.108575,50.12822 31.202075,50.35352 C31.213175,52.56412 31.213175,54.77462 31.202075,56.98522
C30.074575,57.80502 30.074575,58.52612 27.178275,56.99932 C27.167275,54.81692 27.156175,52.64852 27.156175,50.46612 C25.918075,50.05782 24.679975,49.63542 23.441875,49.21302 z"/>
</g>
<g id="Shape4">
<path style="fill-opacity:0.34902;stroke:none" id="shapePath4" d="M44.9717125,40.3142575 C46.7404125,35.8367575 48.5423125,31.3733575 50.4658125,26.9944575 C53.0967125,31.0072575 54.7218125,35.8226575 56.3578125,40.5536575 C55.4513125,40.7789575 53.6384125,41.2294575 52.7319125,41.4547575
C52.7430125,43.6653575 52.7430125,45.8758575 52.7319125,48.0864575 C51.6044125,48.9062575 51.6044125,49.6273575 48.7081125,48.1005575 C48.6971125,45.9181575 48.6860125,43.7498575 48.6860125,41.5673575 C47.4479125,41.1590575 46.2098125,40.7366575 44.9717125,40.3142575
z"/>
</g>
<g id="Shape5">
<path style="fill-opacity:0.34902;stroke:none" id="shapePath5" d="M24.02719375,13.36977 C25.79589375,8.892370000007 27.59779375,4.428869999992 29.52129375,0.05 C32.15229375,4.062870000001 33.77729375,8.878269999996 35.41329375,13.60917 C34.50689375,13.83447 32.69389375,14.28497 31.78749375,14.51027
C31.79849375,16.72087 31.79849375,18.93147 31.78749375,21.14207 C30.65989375,21.96187 30.65989375,22.68287 27.76359375,21.15607 C27.75259375,18.97367 27.74149375,16.80537 27.74149375,14.62297 C26.50339375,14.21457 25.26529375,13.79217 24.02719375,13.36977
z"/>
</g>
<g id="Shape1">
<path style="fill-opacity:0.34902;stroke:none" id="shapePath1" d="M10.1725,39.847995 C11.5925,36.507995 13.2425,33.257995 15.1025,30.137995 C17.4325,33.007995 18.9425,36.397995 20.4025,39.757995 C19.5825,39.917995 17.9425,40.227995 17.1225,40.387995 C17.1325,41.957995 17.1325,43.527995 17.1225,45.107995
C16.2125,45.107995 14.3925,45.107995 13.4825,45.107995 C13.4725,43.527995 13.4625,41.937995 13.4625,40.347995 C12.6425,40.227995 11.0025,39.977995 10.1725,39.847995 z"/>
</g>
</g>
</svg>
