<?xml version="1.0" standalone="no"?>
<!DOCTYPE svg PUBLIC "-//W3C//DTD SVG 1.1//EN" "http://www.w3.org/Graphics/SVG/1.1/DTD/svg11.dtd">
<svg width="100" height="100" version="1.1" xmlns="http://www.w3.org/2000/svg" xmlns:xlink="http://www.w3.org/1999/xlink"><defs><g id="badge">
          <path fill="#fff" opacity="1.00" d=" M 8.36 6.31 C 11.18 4.98 14.71 7.54 13.95 10.68 C 13.75 13.97 9.24 15.00 7.08 12.93 C 5.32 11.05 5.69 7.15 8.36 6.31 M 9.17 8.25 C 7.54 8.60 8.24 11.24 9.83 10.75 C 11.46 10.40 10.76 7.75 9.17 8.25 Z" />
          <path fill="#7bac38" opacity="1.00" d=" M 9.17 8.25 C 10.76 7.75 11.46 10.40 9.83 10.75 C 8.24 11.24 7.54 8.60 9.17 8.25 Z" />
        </g></defs><g transform="scale(4.166666666666667)"><circle cx="11.9" cy="11.9" r="12" style="fill:#7bac38;stroke-width:0;opacity:1.0;stroke:black;"/><use xlink:href="#badge" transform="scale(1.5)translate(-1.9, -1.9)"/><circle cx="11.9" cy="11.9" r="11" style="fill:transparent;stroke:#383333;stroke-width:2;opacity:0.5;"/></g></svg>